<?xml version="1.0" encoding="utf-8"?>
<!-- Generator: Adobe Illustrator 21.1.0, SVG Export Plug-In . SVG Version: 6.00 Build 0)  -->
<svg version="1.1" id="Layer_1" xmlns="http://www.w3.org/2000/svg" xmlns:xlink="http://www.w3.org/1999/xlink" x="0px" y="0px"
	 viewBox="0 0 130 107.5" style="enable-background:new 0 0 130 107.5;" xml:space="preserve">
<style type="text/css">
	.st0{fill:url(#SVGID_1_);}
	.st1{fill:url(#SVGID_2_);}
	.st2{fill:url(#SVGID_3_);}
	.st3{fill:#B32A8E;}
	.st4{fill:url(#SVGID_4_);}
	.st5{fill:url(#SVGID_5_);}
	.st6{fill:url(#SVGID_6_);}
	.st7{fill:url(#SVGID_7_);}
	.st8{fill:url(#SVGID_8_);}
	.st9{fill:url(#SVGID_9_);}
	.st10{fill:url(#SVGID_10_);}
	.st11{fill:#E31F8D;}
	.st12{fill:#E685B5;}
	.st13{fill:#F4CCE1;}
	.st14{fill:#EDAFCF;}
	.st15{fill:#F7DFEC;}
	.st16{fill:#FFFFFF;}
	.st17{fill:url(#SVGID_11_);}
	.st18{fill:url(#SVGID_12_);}
	.st19{fill:url(#SVGID_13_);}
</style>
<g>
	<g>
		
			<linearGradient id="SVGID_1_" gradientUnits="userSpaceOnUse" x1="3.687" y1="790.6965" x2="125.111" y2="790.6965" gradientTransform="matrix(1 0 0 -1 0 842.11)">
			<stop  offset="0" style="stop-color:#E20A7E"/>
			<stop  offset="2.921990e-02" style="stop-color:#E5458C"/>
			<stop  offset="7.128689e-02" style="stop-color:#E76B9D"/>
			<stop  offset="0.1131" style="stop-color:#E983AC"/>
			<stop  offset="0.154" style="stop-color:#EB94B7"/>
			<stop  offset="0.1936" style="stop-color:#EB9DBE"/>
			<stop  offset="0.2304" style="stop-color:#ECA0C0"/>
			<stop  offset="0.2791" style="stop-color:#EDA3C2"/>
			<stop  offset="0.3284" style="stop-color:#EFACC8"/>
			<stop  offset="0.3779" style="stop-color:#F1BBD1"/>
			<stop  offset="0.4084" style="stop-color:#F5C9DA"/>
			<stop  offset="0.4366" style="stop-color:#F6D0DE"/>
			<stop  offset="0.4825" style="stop-color:#FBE3E9"/>
			<stop  offset="0.5026" style="stop-color:#FEEEEF"/>
			<stop  offset="0.5045" style="stop-color:#FBE9EC"/>
			<stop  offset="0.5131" style="stop-color:#F7DBE3"/>
			<stop  offset="0.5234" style="stop-color:#F6D2DE"/>
			<stop  offset="0.5368" style="stop-color:#F5CCDB"/>
			<stop  offset="0.5654" style="stop-color:#F5C9DA"/>
			<stop  offset="0.6172" style="stop-color:#F1BBD1"/>
			<stop  offset="0.6948" style="stop-color:#EFACC6"/>
			<stop  offset="0.7732" style="stop-color:#EDA3C2"/>
			<stop  offset="0.8534" style="stop-color:#ECA0C0"/>
			<stop  offset="0.8746" style="stop-color:#ED95B8"/>
			<stop  offset="0.9159" style="stop-color:#E774A3"/>
			<stop  offset="0.9729" style="stop-color:#E43085"/>
			<stop  offset="0.9843" style="stop-color:#E20A7E"/>
		</linearGradient>
		<path class="st0" d="M125.1,19.7c-9.1-3.3-24.1,32.7-34.8,31c-10.8-1.7-23-38.6-23-40.1c0-1-1.7-1-2.9-1c-1.1-0.1-2.9,0-2.9,1
			c0,1.5-12.2,38.2-23,40.1c-10.7,1.7-25.7-34.2-34.8-31c0,0,20.9,42.6,19.7,73.6c0,0,7.1-1.1,41-1.2c33.9,0,41,1.2,41,1.2
			C104.2,62.3,125.1,19.7,125.1,19.7z"/>
		
			<linearGradient id="SVGID_2_" gradientUnits="userSpaceOnUse" x1="3.687" y1="790.6965" x2="125.111" y2="790.6965" gradientTransform="matrix(1 0 0 -1 0 842.11)">
			<stop  offset="0" style="stop-color:#E20A7E"/>
			<stop  offset="2.921990e-02" style="stop-color:#E5458C"/>
			<stop  offset="7.128689e-02" style="stop-color:#E76B9D"/>
			<stop  offset="0.1131" style="stop-color:#E983AC"/>
			<stop  offset="0.154" style="stop-color:#EB94B7"/>
			<stop  offset="0.1936" style="stop-color:#EB9DBE"/>
			<stop  offset="0.2304" style="stop-color:#ECA0C0"/>
			<stop  offset="0.2791" style="stop-color:#EDA3C2"/>
			<stop  offset="0.3284" style="stop-color:#EFACC8"/>
			<stop  offset="0.3779" style="stop-color:#F1BBD1"/>
			<stop  offset="0.4084" style="stop-color:#F5C9DA"/>
			<stop  offset="0.4366" style="stop-color:#F6D0DE"/>
			<stop  offset="0.4825" style="stop-color:#FBE3E9"/>
			<stop  offset="0.5026" style="stop-color:#FEEEEF"/>
			<stop  offset="0.5045" style="stop-color:#FBE9EC"/>
			<stop  offset="0.5131" style="stop-color:#F7DBE3"/>
			<stop  offset="0.5234" style="stop-color:#F6D2DE"/>
			<stop  offset="0.5368" style="stop-color:#F5CCDB"/>
			<stop  offset="0.5654" style="stop-color:#F5C9DA"/>
			<stop  offset="0.6172" style="stop-color:#F1BBD1"/>
			<stop  offset="0.6948" style="stop-color:#EFACC6"/>
			<stop  offset="0.7732" style="stop-color:#EDA3C2"/>
			<stop  offset="0.8534" style="stop-color:#ECA0C0"/>
			<stop  offset="0.8746" style="stop-color:#ED95B8"/>
			<stop  offset="0.9159" style="stop-color:#E774A3"/>
			<stop  offset="0.9729" style="stop-color:#E43085"/>
			<stop  offset="0.9843" style="stop-color:#E20A7E"/>
		</linearGradient>
		<path class="st1" d="M125.1,19.7c-9.1-3.3-24.1,32.7-34.8,31c-10.8-1.7-23-38.6-23-40.1c0-1-1.7-1-2.9-1c-1.1-0.1-2.9,0-2.9,1
			c0,1.5-12.2,38.2-23,40.1c-10.7,1.7-25.7-34.2-34.8-31c0,0,20.9,42.6,19.7,73.6c0,0,7.1-1.1,41-1.2c33.9,0,41,1.2,41,1.2
			C104.2,62.3,125.1,19.7,125.1,19.7z"/>
		
			<linearGradient id="SVGID_3_" gradientUnits="userSpaceOnUse" x1="6.7594" y1="788.6131" x2="121.6698" y2="788.6131" gradientTransform="matrix(1 0 0 -1 0 842.11)">
			<stop  offset="0" style="stop-color:#E20A7E"/>
			<stop  offset="2.921990e-02" style="stop-color:#E5458C"/>
			<stop  offset="7.128689e-02" style="stop-color:#E76B9D"/>
			<stop  offset="0.1131" style="stop-color:#E983AC"/>
			<stop  offset="0.154" style="stop-color:#EB94B7"/>
			<stop  offset="0.1936" style="stop-color:#EB9DBE"/>
			<stop  offset="0.2304" style="stop-color:#ECA0C0"/>
			<stop  offset="0.2791" style="stop-color:#EDA3C2"/>
			<stop  offset="0.3284" style="stop-color:#EFACC8"/>
			<stop  offset="0.3779" style="stop-color:#F1BBD1"/>
			<stop  offset="0.4084" style="stop-color:#F5C9DA"/>
			<stop  offset="0.4366" style="stop-color:#F6D0DE"/>
			<stop  offset="0.4825" style="stop-color:#FBE3E9"/>
			<stop  offset="0.5026" style="stop-color:#FEEEEF"/>
			<stop  offset="0.5045" style="stop-color:#FBE9EC"/>
			<stop  offset="0.5131" style="stop-color:#F7DBE3"/>
			<stop  offset="0.5234" style="stop-color:#F6D2DE"/>
			<stop  offset="0.5368" style="stop-color:#F5CCDB"/>
			<stop  offset="0.5654" style="stop-color:#F5C9DA"/>
			<stop  offset="0.6172" style="stop-color:#F1BBD1"/>
			<stop  offset="0.6948" style="stop-color:#EFACC6"/>
			<stop  offset="0.7732" style="stop-color:#EDA3C2"/>
			<stop  offset="0.8534" style="stop-color:#ECA0C0"/>
			<stop  offset="0.8746" style="stop-color:#ED95B8"/>
			<stop  offset="0.9159" style="stop-color:#E774A3"/>
			<stop  offset="0.9729" style="stop-color:#E43085"/>
			<stop  offset="0.9843" style="stop-color:#E20A7E"/>
		</linearGradient>
		<path class="st2" d="M121.7,24.3c-8.5-2.9-22.9,31.3-32.9,29.7c-10.1-1.6-21.5-37.4-21.5-38.7c0-0.9-1.2-2.6-2.7-2.2
			c-1.8-0.2-2.7,1.4-2.7,2.2c0,1.4-11.4,37.1-21.5,38.7C30.2,55.7,15.2,19.3,6.8,22.2c0,0,16.2,43.3,15,71.7c0,0,10.9-1.7,42.6-1.8
			c38.6-0.1,42.8,0.9,42.8,0.9C106.1,64.5,121.7,24.3,121.7,24.3z"/>
		<ellipse class="st3" cx="64.5" cy="101.8" rx="41.9" ry="5.3"/>
		<g>
			
				<linearGradient id="SVGID_4_" gradientUnits="userSpaceOnUse" x1="20.8928" y1="746.5869" x2="107.7823" y2="746.5869" gradientTransform="matrix(1 0 0 -1 0 842.11)">
				<stop  offset="0" style="stop-color:#E20A7E"/>
				<stop  offset="2.921990e-02" style="stop-color:#E5458C"/>
				<stop  offset="7.128689e-02" style="stop-color:#E76B9D"/>
				<stop  offset="0.1131" style="stop-color:#E983AC"/>
				<stop  offset="0.154" style="stop-color:#EB94B7"/>
				<stop  offset="0.1936" style="stop-color:#EB9DBE"/>
				<stop  offset="0.2304" style="stop-color:#ECA0C0"/>
				<stop  offset="0.2791" style="stop-color:#EDA3C2"/>
				<stop  offset="0.3284" style="stop-color:#EFACC8"/>
				<stop  offset="0.3779" style="stop-color:#F1BBD1"/>
				<stop  offset="0.4084" style="stop-color:#F5C9DA"/>
				<stop  offset="0.4366" style="stop-color:#F6D0DE"/>
				<stop  offset="0.4825" style="stop-color:#FBE3E9"/>
				<stop  offset="0.5026" style="stop-color:#FEEEEF"/>
				<stop  offset="0.5045" style="stop-color:#FBE9EC"/>
				<stop  offset="0.5131" style="stop-color:#F7DBE3"/>
				<stop  offset="0.5234" style="stop-color:#F6D2DE"/>
				<stop  offset="0.5368" style="stop-color:#F5CCDB"/>
				<stop  offset="0.5654" style="stop-color:#F5C9DA"/>
				<stop  offset="0.6172" style="stop-color:#F1BBD1"/>
				<stop  offset="0.6948" style="stop-color:#EFACC6"/>
				<stop  offset="0.7732" style="stop-color:#EDA3C2"/>
				<stop  offset="0.8534" style="stop-color:#ECA0C0"/>
				<stop  offset="0.8746" style="stop-color:#ED95B8"/>
				<stop  offset="0.9159" style="stop-color:#E774A3"/>
				<stop  offset="0.9729" style="stop-color:#E43085"/>
				<stop  offset="0.9843" style="stop-color:#E20A7E"/>
			</linearGradient>
			<path class="st4" d="M106.4,101.5c-28-4.1-56-4.1-84.1,0c-0.6-3.6-0.9-5.3-1.5-8.8c29-4.2,58-4.2,86.9,0
				C107.3,96.2,107,98.1,106.4,101.5z"/>
		</g>
		<g>
			
				<linearGradient id="SVGID_5_" gradientUnits="userSpaceOnUse" x1="21.0157" y1="750.6118" x2="107.9064" y2="750.6118" gradientTransform="matrix(1 0 0 -1 0 842.11)">
				<stop  offset="0" style="stop-color:#E20A7E"/>
				<stop  offset="2.921990e-02" style="stop-color:#E5458C"/>
				<stop  offset="7.128689e-02" style="stop-color:#E76B9D"/>
				<stop  offset="0.1131" style="stop-color:#E983AC"/>
				<stop  offset="0.154" style="stop-color:#EB94B7"/>
				<stop  offset="0.1936" style="stop-color:#EB9DBE"/>
				<stop  offset="0.2304" style="stop-color:#ECA0C0"/>
				<stop  offset="0.2791" style="stop-color:#EDA3C2"/>
				<stop  offset="0.3284" style="stop-color:#EFACC8"/>
				<stop  offset="0.3779" style="stop-color:#F1BBD1"/>
				<stop  offset="0.4084" style="stop-color:#F5C9DA"/>
				<stop  offset="0.4366" style="stop-color:#F6D0DE"/>
				<stop  offset="0.4825" style="stop-color:#FBE3E9"/>
				<stop  offset="0.5026" style="stop-color:#FEEEEF"/>
				<stop  offset="0.5045" style="stop-color:#FBE9EC"/>
				<stop  offset="0.5131" style="stop-color:#F7DBE3"/>
				<stop  offset="0.5234" style="stop-color:#F6D2DE"/>
				<stop  offset="0.5368" style="stop-color:#F5CCDB"/>
				<stop  offset="0.5654" style="stop-color:#F5C9DA"/>
				<stop  offset="0.6172" style="stop-color:#F1BBD1"/>
				<stop  offset="0.6948" style="stop-color:#EFACC6"/>
				<stop  offset="0.7732" style="stop-color:#EDA3C2"/>
				<stop  offset="0.8534" style="stop-color:#ECA0C0"/>
				<stop  offset="0.8746" style="stop-color:#ED95B8"/>
				<stop  offset="0.9159" style="stop-color:#E774A3"/>
				<stop  offset="0.9729" style="stop-color:#E43085"/>
				<stop  offset="0.9843" style="stop-color:#E20A7E"/>
			</linearGradient>
			<path class="st5" d="M107.9,92.5c-14.5-2.1-29-3.2-43.5-3.2s-29,1.1-43.4,3.2l0.2,0.9c14-2,29.2-3.1,43.3-3.1l0,0
				c14,0,29.2,1.4,43.4,3.3l0.1-0.5L107.9,92.5z"/>
			
				<linearGradient id="SVGID_6_" gradientUnits="userSpaceOnUse" x1="22.3676" y1="742.6234" x2="106.6898" y2="742.6234" gradientTransform="matrix(1 0 0 -1 0 842.11)">
				<stop  offset="0" style="stop-color:#E20A7E"/>
				<stop  offset="2.921990e-02" style="stop-color:#E5458C"/>
				<stop  offset="7.128689e-02" style="stop-color:#E76B9D"/>
				<stop  offset="0.1131" style="stop-color:#E983AC"/>
				<stop  offset="0.154" style="stop-color:#EB94B7"/>
				<stop  offset="0.1936" style="stop-color:#EB9DBE"/>
				<stop  offset="0.2304" style="stop-color:#ECA0C0"/>
				<stop  offset="0.2791" style="stop-color:#EDA3C2"/>
				<stop  offset="0.3284" style="stop-color:#EFACC8"/>
				<stop  offset="0.3779" style="stop-color:#F1BBD1"/>
				<stop  offset="0.4084" style="stop-color:#F5C9DA"/>
				<stop  offset="0.4366" style="stop-color:#F6D0DE"/>
				<stop  offset="0.4825" style="stop-color:#FBE3E9"/>
				<stop  offset="0.5026" style="stop-color:#FEEEEF"/>
				<stop  offset="0.5045" style="stop-color:#FBE9EC"/>
				<stop  offset="0.5131" style="stop-color:#F7DBE3"/>
				<stop  offset="0.5234" style="stop-color:#F6D2DE"/>
				<stop  offset="0.5368" style="stop-color:#F5CCDB"/>
				<stop  offset="0.5654" style="stop-color:#F5C9DA"/>
				<stop  offset="0.6172" style="stop-color:#F1BBD1"/>
				<stop  offset="0.6948" style="stop-color:#EFACC6"/>
				<stop  offset="0.7732" style="stop-color:#EDA3C2"/>
				<stop  offset="0.8534" style="stop-color:#ECA0C0"/>
				<stop  offset="0.8746" style="stop-color:#ED95B8"/>
				<stop  offset="0.9159" style="stop-color:#E774A3"/>
				<stop  offset="0.9729" style="stop-color:#E43085"/>
				<stop  offset="0.9843" style="stop-color:#E20A7E"/>
			</linearGradient>
			<path class="st6" d="M64.4,97.5c-13.6,0-28.4,1.1-42,3.1l0.1,1c14-2,28-3.1,41.9-3.1c14,0,28.1,1.1,42,3.1l0.1-1
				C92.9,98.6,78,97.5,64.4,97.5z"/>
		</g>
		<g>
			
				<radialGradient id="SVGID_7_" cx="-13.6848" cy="766.4472" r="8.1627" fx="-11.5385" fy="763.5522" gradientTransform="matrix(-1.0797 0.2005 -0.1826 -0.9832 145.4332 828.5267)" gradientUnits="userSpaceOnUse">
				<stop  offset="2.272730e-03" style="stop-color:#FFFFFF"/>
				<stop  offset="0.1385" style="stop-color:#EBD1DB"/>
				<stop  offset="0.2949" style="stop-color:#DCA8BF"/>
				<stop  offset="0.4499" style="stop-color:#D187A9"/>
				<stop  offset="0.6003" style="stop-color:#CB719B"/>
				<stop  offset="0.7449" style="stop-color:#C65F90"/>
				<stop  offset="0.881" style="stop-color:#C4538A"/>
				<stop  offset="1" style="stop-color:#C34F88"/>
			</radialGradient>
			<path class="st7" d="M16.2,73c1.1,5.9,3.8,10.4,6,10c2.2-0.4,3.2-5.5,2.1-11.4c-1.1-5.9-3.8-10.4-6-10S15.1,67,16.2,73z"/>
			
				<radialGradient id="SVGID_8_" cx="20.4012" cy="766.3448" r="7.3889" fx="22.3441" fy="763.7242" gradientTransform="matrix(0.9821 -0.1882 -0.1882 -0.9821 144.4379 828.6771)" gradientUnits="userSpaceOnUse">
				<stop  offset="2.272730e-03" style="stop-color:#FFFFFF"/>
				<stop  offset="0.1006" style="stop-color:#F9E2EC"/>
				<stop  offset="0.264" style="stop-color:#F1B9D3"/>
				<stop  offset="0.4258" style="stop-color:#ED9AC0"/>
				<stop  offset="0.5828" style="stop-color:#E982B1"/>
				<stop  offset="0.7337" style="stop-color:#E770A8"/>
				<stop  offset="0.8757" style="stop-color:#E764A2"/>
				<stop  offset="1" style="stop-color:#E560A1"/>
			</radialGradient>
			<path class="st8" d="M23.6,71.5c1,5.4,0.4,10-1.5,10.3s-4.2-3.7-5.2-9.1s-0.4-10,1.5-10.3C20.3,62.2,22.5,66.2,23.6,71.5z"/>
		</g>
		<g>
			
				<radialGradient id="SVGID_9_" cx="-77.4796" cy="753.439" r="8.1627" fx="-75.3333" fy="750.5439" gradientTransform="matrix(1.0797 0.2005 0.1826 -0.9832 54.4299 828.5267)" gradientUnits="userSpaceOnUse">
				<stop  offset="2.272730e-03" style="stop-color:#FFFFFF"/>
				<stop  offset="0.1385" style="stop-color:#EBD1DB"/>
				<stop  offset="0.2949" style="stop-color:#DCA8BF"/>
				<stop  offset="0.4499" style="stop-color:#D187A9"/>
				<stop  offset="0.6003" style="stop-color:#CB719B"/>
				<stop  offset="0.7449" style="stop-color:#C65F90"/>
				<stop  offset="0.881" style="stop-color:#C4538A"/>
				<stop  offset="1" style="stop-color:#C34F88"/>
			</radialGradient>
			<path class="st9" d="M112.5,73c-1.1,5.9-3.8,10.4-6,10c-2.2-0.4-3.2-5.5-2.1-11.4c1.1-5.9,3.8-10.4,6-10S113.4,67,112.5,73z"/>
			
				<radialGradient id="SVGID_10_" cx="90.3825" cy="752.9306" r="7.3889" fx="92.3254" fy="750.3101" gradientTransform="matrix(-0.9821 -0.1882 0.1882 -0.9821 55.4253 828.6771)" gradientUnits="userSpaceOnUse">
				<stop  offset="2.272730e-03" style="stop-color:#FFFFFF"/>
				<stop  offset="0.1006" style="stop-color:#F9E2EC"/>
				<stop  offset="0.264" style="stop-color:#F1B9D3"/>
				<stop  offset="0.4258" style="stop-color:#ED9AC0"/>
				<stop  offset="0.5828" style="stop-color:#E982B1"/>
				<stop  offset="0.7337" style="stop-color:#E770A8"/>
				<stop  offset="0.8757" style="stop-color:#E764A2"/>
				<stop  offset="1" style="stop-color:#E560A1"/>
			</radialGradient>
			<path class="st10" d="M105.1,71.5c-1,5.4-0.4,10,1.5,10.3s4.2-3.7,5.2-9.1c1-5.4,0.4-10-1.5-10.3
				C108.4,62.2,106.1,66.2,105.1,71.5z"/>
		</g>
		<g>
			<path class="st11" d="M78.7,54.3c-7.1-6.6-13.4,1-14.4,2.6c-0.9-1.6-6.4-9.5-13.8-3.1C42.3,61,53.5,78,63.9,84.1l0,0
				C74.5,78.5,86.6,61.7,78.7,54.3z"/>
			<g>
				<path class="st12" d="M76.9,54.1c-7-6.3-12.9,1.2-13.8,2.7c-0.9-1.5-6.3-8.8-13.4-2.7C42,61,53.1,77.2,63.2,82.6l0,0
					C73.2,77.2,84.7,61,76.9,54.1z"/>
				<polygon class="st13" points="62.8,73.2 56.3,64.9 56.9,58.5 63.2,56.8 69.8,59.5 69.7,65.5 				"/>
				<path class="st14" d="M56.9,58.5l0.7-6.5c0,0,3.3,1.1,5.5,4.7L56.9,58.5z"/>
				<path class="st14" d="M69.8,59.5l-1.2-7.4c0,0-3.3,1-5.5,4.7L69.8,59.5z"/>
				<polygon class="st14" points="56.9,58.5 51.7,60.1 56.3,64.9 				"/>
				<polygon class="st14" points="69.7,65.5 69.8,59.5 74.5,60.3 				"/>
				<polygon class="st14" points="62.8,73.2 59.9,76.6 63.2,82.6 66.1,77.1 				"/>
				<polygon class="st14" points="69.7,65.5 72.9,74.5 62.8,73.2 				"/>
				<polygon class="st14" points="56.3,64.9 53.6,74.5 62.8,73.2 				"/>
				<polygon class="st15" points="59.9,76.6 53.6,74.5 62.8,73.2 				"/>
				<polygon class="st15" points="66.1,77.1 72.9,74.5 62.8,73.2 				"/>
				<polygon class="st16" points="74.5,60.3 76.8,68.7 69.7,65.5 				"/>
				<polygon class="st15" points="51.7,60.1 48.1,65.1 56.3,64.9 				"/>
				<polygon class="st15" points="68.7,52 74.5,60.3 69.8,59.5 				"/>
				<polygon class="st16" points="51.7,60.1 57.6,52 56.9,58.5 				"/>
				<polygon class="st14" points="68.7,52 77.2,54.2 74.5,60.3 				"/>
				<polygon class="st14" points="57.6,52 49.8,54.1 51.7,60.1 				"/>
			</g>
		</g>
		
			<radialGradient id="SVGID_11_" cx="64.4913" cy="834.9819" r="7.1568" fx="66.3731" fy="832.4437" gradientTransform="matrix(1 0 0 -1 0 842.11)" gradientUnits="userSpaceOnUse">
			<stop  offset="2.272730e-03" style="stop-color:#FFFFFF"/>
			<stop  offset="0.1006" style="stop-color:#F9E2EC"/>
			<stop  offset="0.264" style="stop-color:#F1B9D3"/>
			<stop  offset="0.4258" style="stop-color:#ED9AC0"/>
			<stop  offset="0.5828" style="stop-color:#E982B1"/>
			<stop  offset="0.7337" style="stop-color:#E770A8"/>
			<stop  offset="0.8757" style="stop-color:#E764A2"/>
			<stop  offset="1" style="stop-color:#E560A1"/>
		</radialGradient>
		<circle class="st17" cx="64.5" cy="7.1" r="7.1"/>
		
			<radialGradient id="SVGID_12_" cx="6.7993" cy="822.8807" r="6.7007" fx="8.5611" fy="820.5043" gradientTransform="matrix(1 0 0 -1 0 842.11)" gradientUnits="userSpaceOnUse">
			<stop  offset="2.272730e-03" style="stop-color:#FFFFFF"/>
			<stop  offset="0.1006" style="stop-color:#F9E2EC"/>
			<stop  offset="0.264" style="stop-color:#F1B9D3"/>
			<stop  offset="0.4258" style="stop-color:#ED9AC0"/>
			<stop  offset="0.5828" style="stop-color:#E982B1"/>
			<stop  offset="0.7337" style="stop-color:#E770A8"/>
			<stop  offset="0.8757" style="stop-color:#E764A2"/>
			<stop  offset="1" style="stop-color:#E560A1"/>
		</radialGradient>
		<circle class="st18" cx="6.8" cy="19.2" r="6.8"/>
		
			<radialGradient id="SVGID_13_" cx="123.0511" cy="822.8807" r="6.7007" fx="124.8131" fy="820.5043" gradientTransform="matrix(1 0 0 -1 0 842.11)" gradientUnits="userSpaceOnUse">
			<stop  offset="2.272730e-03" style="stop-color:#FFFFFF"/>
			<stop  offset="0.1006" style="stop-color:#F9E2EC"/>
			<stop  offset="0.264" style="stop-color:#F1B9D3"/>
			<stop  offset="0.4258" style="stop-color:#ED9AC0"/>
			<stop  offset="0.5828" style="stop-color:#E982B1"/>
			<stop  offset="0.7337" style="stop-color:#E770A8"/>
			<stop  offset="0.8757" style="stop-color:#E764A2"/>
			<stop  offset="1" style="stop-color:#E560A1"/>
		</radialGradient>
		<circle class="st19" cx="123" cy="19.2" r="6.8"/>
	</g>
</g>
<g>
</g>
<g>
</g>
<g>
</g>
<g>
</g>
<g>
</g>
<g>
</g>
</svg>
