<?xml version="1.0" encoding="utf-8"?>
<!-- Generator: Adobe Illustrator 21.1.0, SVG Export Plug-In . SVG Version: 6.00 Build 0)  -->
<svg version="1.1" id="Layer_1" xmlns="http://www.w3.org/2000/svg" xmlns:xlink="http://www.w3.org/1999/xlink" x="0px" y="0px"
	 viewBox="0 0 115.9 115.9" style="enable-background:new 0 0 115.9 115.9;" xml:space="preserve">
<style type="text/css">
	.st0{fill:#F1F2F2;}
	.st1{fill:#FFFFFF;}
</style>
<g>
	<path class="st0" d="M103.7,0.2H12.3C5.6,0.2,0.2,5.6,0.2,12.3v91.3c0,6.7,5.4,12.1,12.1,12.1h91.4c6.7,0,12.1-5.4,12.1-12.1V12.3
		C115.8,5.6,110.3,0.2,103.7,0.2L103.7,0.2z"/>
</g>
<g>
	<path class="st1" d="M81.1,81.8c0.1,0.5,0.1,0.9-0.3,1.2c-0.3,0.3-0.9,0.5-1.7,0.5c-0.8,0.1-7.5-0.1-7.9-0.2
		c-0.4-0.1-0.7-0.3-0.9-0.5c-0.2-0.2-0.3-0.5-0.5-0.8l-7.8-16.5c-0.3-0.6-1.2-0.7-1.5-0.1l-9.4,16.5c-0.2,0.3-0.3,0.6-0.5,0.8
		c-0.2,0.2-0.5,0.4-0.9,0.5c-0.4,0.1-6.8,0.3-7.5,0.2c-0.7-0.1-1.2-0.3-1.5-0.5c-0.3-0.3-0.3-0.7-0.2-1.2c0.1-0.5,11-20.5,12.7-23.6
		c0.1-0.3,0.1-0.6,0-0.8c-1.7-3.1-12.7-23-12.8-23.5c-0.2-0.6-0.2-1,0-1.3c0.4-0.4,1.2-0.4,2.1-0.2c0.8,0.1,8.2,1.3,8.6,1.4
		c0.4,0.1,0.7,0.3,0.9,0.5c0.2,0.2,0.3,0.5,0.5,0.8l8,15c0.3,0.6,1.2,0.6,1.5,0L70,35c0.2-0.3,0.3-0.6,0.5-0.8
		c0.2-0.2,0.4-0.4,0.8-0.5s7.5-1.4,8.3-1.5c0.9-0.1,1.3,0.2,1.5,0.5c0.3,0.3,0.4,0.7,0.2,1.2c-0.1,0.5-1.3,2.5-1.8,3.4L68.6,57.4
		c-0.1,0.3-0.1,0.6,0,0.8C70.3,61.3,81,81.3,81.1,81.8z"/>
	<path class="st1" d="M99,52.4c0,0.5,0,0.8-0.1,1.2c0,0.3-0.1,0.6-0.2,0.8c-0.1,0.2-0.2,0.3-0.3,0.4c-0.1,0.1-0.2,0.1-0.4,0.1h-6.5
		c-0.6,0-1.1,0.5-1.1,1.1v23.3c0,0.2-0.1,0.3-0.2,0.4c-0.1,0.1-0.3,0.2-0.5,0.3c-0.2,0.1-0.5,0.1-0.9,0.2c-0.4,0-0.9,0.1-1.5,0.1
		s-1.1,0-1.5-0.1c-0.4,0-0.7-0.1-0.9-0.2c-0.2-0.1-0.4-0.2-0.5-0.3c-0.1-0.1-0.2-0.3-0.2-0.4V56c0-0.6-0.5-1.1-1.1-1.1h-6.5
		c-0.2,0-0.3,0-0.4-0.1c-0.1-0.1-0.2-0.2-0.3-0.4c-0.1-0.2-0.1-0.5-0.2-0.8c0-0.3-0.1-0.7-0.1-1.2c0-0.5,0-0.9,0.1-1.2
		c0-0.3,0.1-0.6,0.2-0.8c0.1-0.2,0.2-0.3,0.3-0.4c0.1-0.1,0.2-0.1,0.4-0.1h21.3c0.1,0,0.3,0,0.4,0.1c0.1,0.1,0.2,0.2,0.3,0.4
		c0.1,0.2,0.1,0.5,0.2,0.8C99,51.5,99,51.9,99,52.4z"/>
	<path class="st1" d="M41.9,69.9c0,0.4-0.1,0.7-0.2,1c-0.1,0.3-0.3,0.5-0.5,0.7c-0.2,0.2-0.5,0.3-0.7,0.4c-0.3,0.1-0.6,0.1-0.9,0.1
		H37c-0.5,0-1-0.1-1.4-0.2c-0.4-0.1-0.8-0.3-1.1-0.6c-0.3-0.3-0.7-0.7-1-1.2c-0.3-0.5-0.7-1.1-1.1-1.9l-7.5-14.1
		c-0.2-0.4-0.4-0.8-0.6-1.2c-0.2-0.5-0.1-0.3-0.4-0.8c-0.6-1.3-1.5-0.9-1.5-0.2c0,0.5,0,1,0,1.6c0,0.6,0,1.2,0,1.9v15.8
		c0,0.2,0,0.3-0.1,0.4c-0.1,0.1-0.2,0.2-0.4,0.3c-0.2,0.1-0.5,0.2-0.9,0.2c-0.4,0-0.8,0.1-1.4,0.1c-0.5,0-1,0-1.4-0.1
		c-0.4,0-0.6-0.1-0.8-0.2c-0.2-0.1-0.3-0.2-0.4-0.3C17,71.4,17,71.3,17,71.1V44c0-0.7,0.2-1.3,0.6-1.6c0.4-0.4,1-0.5,1.6-0.5h3.3
		c0.6,0,1.1,0.1,1.5,0.2c0.4,0.1,0.8,0.3,1.1,0.5c0.3,0.2,0.6,0.6,0.9,1c0.3,0.4,0.6,0.9,0.9,1.5L32.7,56c0.3,0.7,0.7,1.3,1,2
		c0.3,0.6,0.7,1.3,1,1.9c0.1,0.2,0.2,0.4,0.3,0.6c0.4,0.9,1.4,1.1,1.4-0.2c0-1.2,0-2.3,0-3.4V42.7c0-0.2,0-0.3,0.1-0.4
		c0.1-0.1,0.2-0.2,0.5-0.3c0.2-0.1,0.5-0.2,0.9-0.2c0.4,0,0.8-0.1,1.4-0.1c0.5,0,1,0,1.3,0.1c0.4,0,0.6,0.1,0.8,0.2
		c0.2,0.1,0.3,0.2,0.4,0.3c0.1,0.1,0.1,0.3,0.1,0.4V69.9z"/>
</g>
</svg>
