<?xml version="1.0" encoding="utf-8"?>
<!-- Generator: Adobe Illustrator 21.1.0, SVG Export Plug-In . SVG Version: 6.00 Build 0)  -->
<svg version="1.1" id="Layer_1" xmlns="http://www.w3.org/2000/svg" xmlns:xlink="http://www.w3.org/1999/xlink" x="0px" y="0px"
	 viewBox="0 0 79.7 79.9" style="enable-background:new 0 0 79.7 79.9;" xml:space="preserve">
<style type="text/css">
	.st0{fill:url(#SVGID_1_);stroke:#BCBEC0;stroke-miterlimit:10;}
	.st1{fill:#E8128E;}
	.st2{fill:#FF80CF;}
	.st3{fill:#FFCCEE;}
	.st4{fill:#FFB0E5;}
	.st5{fill:#FFE3F7;}
	.st6{fill:#FFFFFF;}
</style>
<g>
	<radialGradient id="SVGID_1_" cx="39.8699" cy="39.9689" r="39.3758" gradientUnits="userSpaceOnUse">
		<stop  offset="0.4925" style="stop-color:#FFFFFF;stop-opacity:0.2"/>
		<stop  offset="1" style="stop-color:#B0DB00;stop-opacity:0.2"/>
	</radialGradient>
	<path class="st0" d="M71,0.6H8.7c-4.5,0-8.2,3.7-8.2,8.2v62.3c0,4.5,3.7,8.2,8.2,8.2H71c4.6,0,8.2-3.7,8.2-8.2V8.8
		C79.2,4.3,75.5,0.6,71,0.6L71,0.6z M71,0.6"/>
	<g>
		<path class="st1" d="M51.9,28.6c-6.1-5.7-11.4,0.9-12.1,2.2c-0.7-1.3-5.4-8-11.7-2.6c-6.9,6,2.5,20.6,11.3,25.6l0,0
			C48.3,49.1,58.6,34.9,51.9,28.6z"/>
		<g>
			<path class="st2" d="M49.3,29.6c-5.3-4.7-9.7,0.9-10.4,2c-0.7-1.1-4.8-6.7-10.1-2c-5.9,5.2,2.5,17.4,10.1,21.6l0,0
				C46.5,47.1,55.1,34.9,49.3,29.6z"/>
			<polygon class="st3" points="38.6,44.2 33.7,37.8 34.1,33 38.9,31.7 43.9,33.7 43.8,38.3 			"/>
			<path class="st4" d="M34.1,33l0.6-4.9c0,0,2.5,0.8,4.2,3.6L34.1,33z"/>
			<path class="st4" d="M43.9,33.7L43,28.1c0,0-2.5,0.8-4.2,3.5L43.9,33.7z"/>
			<polygon class="st4" points="34.1,33 30.2,34.3 33.7,37.8 			"/>
			<polygon class="st4" points="43.8,38.3 43.9,33.7 47.5,34.4 			"/>
			<polygon class="st4" points="38.6,44.2 36.4,46.6 38.9,51.2 41.2,47 			"/>
			<polygon class="st4" points="43.8,38.3 46.2,45 38.6,44.2 			"/>
			<polygon class="st4" points="33.7,37.8 31.7,45.1 38.6,44.2 			"/>
			<polygon class="st5" points="36.4,46.6 31.7,45.1 38.6,44.2 			"/>
			<polygon class="st5" points="41.2,47 46.2,45 38.6,44.2 			"/>
			<polygon class="st6" points="47.5,34.4 49.2,40.7 43.8,38.3 			"/>
			<polygon class="st5" points="30.2,34.3 27.5,38 33.7,37.8 			"/>
			<polygon class="st5" points="43,28.1 47.5,34.4 43.9,33.7 			"/>
			<polygon class="st6" points="30.2,34.3 34.7,28.1 34.1,33 			"/>
			<polygon class="st4" points="43,28.1 49.4,29.8 47.5,34.4 			"/>
			<polygon class="st4" points="34.7,28.1 28.8,29.7 30.2,34.3 			"/>
		</g>
	</g>
</g>
</svg>
