<?xml version="1.0" encoding="utf-8"?>
<!-- Generator: Adobe Illustrator 21.1.0, SVG Export Plug-In . SVG Version: 6.00 Build 0)  -->
<svg version="1.1" id="Layer_1" xmlns="http://www.w3.org/2000/svg" xmlns:xlink="http://www.w3.org/1999/xlink" x="0px" y="0px"
	 viewBox="0 0 115.4 114.8" style="enable-background:new 0 0 115.4 114.8;" xml:space="preserve">
<style type="text/css">
	.st0{fill:url(#SVGID_1_);}
	.st1{fill:url(#SVGID_2_);}
	.st2{fill:url(#SVGID_3_);}
	.st3{fill:url(#SVGID_4_);}
	.st4{fill:#B3278E;}
	.st5{fill:url(#SVGID_5_);}
	.st6{fill:url(#SVGID_6_);}
	.st7{fill:url(#SVGID_7_);}
	.st8{fill:url(#SVGID_8_);}
	.st9{fill:url(#SVGID_9_);}
	.st10{fill:url(#SVGID_10_);}
	.st11{fill:url(#SVGID_11_);}
	.st12{fill:#E41A8D;}
	.st13{fill:#E784B5;}
	.st14{fill:#F5CCE1;}
	.st15{fill:#EEB0CF;}
	.st16{fill:#F8E0ED;}
	.st17{fill:#FFFFFF;}
	.st18{fill:url(#SVGID_12_);}
	.st19{fill:url(#SVGID_13_);}
	.st20{fill:url(#SVGID_14_);}
</style>
<g>
	
		<radialGradient id="SVGID_1_" cx="57.6" cy="58.34" r="56.575" gradientTransform="matrix(1 0 0 -1 0 115.89)" gradientUnits="userSpaceOnUse">
		<stop  offset="0.5185" style="stop-color:#FFFFFF"/>
		<stop  offset="0.9986" style="stop-color:#AED037"/>
	</radialGradient>
	<path class="st0" d="M57.6,114.1L57.6,114.1C26.3,114.1,1,88.8,1,57.6l0,0C1,26.3,26.3,1,57.6,1l0,0c31.2,0,56.6,25.3,56.6,56.6
		l0,0C114.2,88.8,88.8,114.1,57.6,114.1z"/>
	<g>
		<g>
			
				<linearGradient id="SVGID_2_" gradientUnits="userSpaceOnUse" x1="7.5" y1="58.256" x2="106.3" y2="58.256" gradientTransform="matrix(1 0 0 -1 0 115.89)">
				<stop  offset="0" style="stop-color:#E30A7E"/>
				<stop  offset="2.921990e-02" style="stop-color:#E5448B"/>
				<stop  offset="7.128689e-02" style="stop-color:#E86B9D"/>
				<stop  offset="0.1131" style="stop-color:#EA83AC"/>
				<stop  offset="0.154" style="stop-color:#EB93B7"/>
				<stop  offset="0.1936" style="stop-color:#EC9CBE"/>
				<stop  offset="0.2304" style="stop-color:#EDA0C0"/>
				<stop  offset="0.2791" style="stop-color:#EDA3C2"/>
				<stop  offset="0.3284" style="stop-color:#EFACC8"/>
				<stop  offset="0.3779" style="stop-color:#F2BCD2"/>
				<stop  offset="0.4084" style="stop-color:#F5C9DA"/>
				<stop  offset="0.4366" style="stop-color:#F6D0DE"/>
				<stop  offset="0.4825" style="stop-color:#FAE3E9"/>
				<stop  offset="0.5026" style="stop-color:#FCEDEF"/>
				<stop  offset="0.5045" style="stop-color:#FBE9ED"/>
				<stop  offset="0.5131" style="stop-color:#F8DBE4"/>
				<stop  offset="0.5234" style="stop-color:#F6D1DE"/>
				<stop  offset="0.5368" style="stop-color:#F5CBDB"/>
				<stop  offset="0.5654" style="stop-color:#F5C9DA"/>
				<stop  offset="0.6172" style="stop-color:#F2BBD1"/>
				<stop  offset="0.6948" style="stop-color:#EFACC7"/>
				<stop  offset="0.7732" style="stop-color:#EDA3C2"/>
				<stop  offset="0.8534" style="stop-color:#EDA0C0"/>
				<stop  offset="0.8746" style="stop-color:#EC94B7"/>
				<stop  offset="0.9159" style="stop-color:#E874A3"/>
				<stop  offset="0.9729" style="stop-color:#E42D84"/>
				<stop  offset="0.9843" style="stop-color:#E30A7E"/>
			</linearGradient>
			<path class="st1" d="M106.3,31.8C98.9,29.1,86.7,58.4,78,57c-8.8-1.4-18.7-31.4-18.7-32.6c0-0.8-1.4-0.8-2.4-0.8
				c-0.9-0.1-2.4,0-2.4,0.8c0,1.2-9.9,31.1-18.7,32.6c-8.7,1.4-20.9-27.8-28.3-25.2c0,0,17,34.7,16,59.9c0,0,5.8-0.9,33.4-1
				c27.6,0,33.4,1,33.4,1C89.3,66.5,106.3,31.8,106.3,31.8z"/>
			
				<linearGradient id="SVGID_3_" gradientUnits="userSpaceOnUse" x1="7.5" y1="58.256" x2="106.3" y2="58.256" gradientTransform="matrix(1 0 0 -1 0 115.89)">
				<stop  offset="0" style="stop-color:#E30A7E"/>
				<stop  offset="2.921990e-02" style="stop-color:#E5448B"/>
				<stop  offset="7.128689e-02" style="stop-color:#E86B9D"/>
				<stop  offset="0.1131" style="stop-color:#EA83AC"/>
				<stop  offset="0.154" style="stop-color:#EB93B7"/>
				<stop  offset="0.1936" style="stop-color:#EC9CBE"/>
				<stop  offset="0.2304" style="stop-color:#EDA0C0"/>
				<stop  offset="0.2791" style="stop-color:#EDA3C2"/>
				<stop  offset="0.3284" style="stop-color:#EFACC8"/>
				<stop  offset="0.3779" style="stop-color:#F2BCD2"/>
				<stop  offset="0.4084" style="stop-color:#F5C9DA"/>
				<stop  offset="0.4366" style="stop-color:#F6D0DE"/>
				<stop  offset="0.4825" style="stop-color:#FAE3E9"/>
				<stop  offset="0.5026" style="stop-color:#FCEDEF"/>
				<stop  offset="0.5045" style="stop-color:#FBE9ED"/>
				<stop  offset="0.5131" style="stop-color:#F8DBE4"/>
				<stop  offset="0.5234" style="stop-color:#F6D1DE"/>
				<stop  offset="0.5368" style="stop-color:#F5CBDB"/>
				<stop  offset="0.5654" style="stop-color:#F5C9DA"/>
				<stop  offset="0.6172" style="stop-color:#F2BBD1"/>
				<stop  offset="0.6948" style="stop-color:#EFACC7"/>
				<stop  offset="0.7732" style="stop-color:#EDA3C2"/>
				<stop  offset="0.8534" style="stop-color:#EDA0C0"/>
				<stop  offset="0.8746" style="stop-color:#EC94B7"/>
				<stop  offset="0.9159" style="stop-color:#E874A3"/>
				<stop  offset="0.9729" style="stop-color:#E42D84"/>
				<stop  offset="0.9843" style="stop-color:#E30A7E"/>
			</linearGradient>
			<path class="st2" d="M106.3,31.8C98.9,29.1,86.7,58.4,78,57c-8.8-1.4-18.7-31.4-18.7-32.6c0-0.8-1.4-0.8-2.4-0.8
				c-0.9-0.1-2.4,0-2.4,0.8c0,1.2-9.9,31.1-18.7,32.6c-8.7,1.4-20.9-27.8-28.3-25.2c0,0,17,34.7,16,59.9c0,0,5.8-0.9,33.4-1
				c27.6,0,33.4,1,33.4,1C89.3,66.5,106.3,31.8,106.3,31.8z"/>
			
				<linearGradient id="SVGID_4_" gradientUnits="userSpaceOnUse" x1="10" y1="56.5608" x2="103.5" y2="56.5608" gradientTransform="matrix(1 0 0 -1 0 115.89)">
				<stop  offset="0" style="stop-color:#E30A7E"/>
				<stop  offset="2.921990e-02" style="stop-color:#E5448B"/>
				<stop  offset="7.128689e-02" style="stop-color:#E86B9D"/>
				<stop  offset="0.1131" style="stop-color:#EA83AC"/>
				<stop  offset="0.154" style="stop-color:#EB93B7"/>
				<stop  offset="0.1936" style="stop-color:#EC9CBE"/>
				<stop  offset="0.2304" style="stop-color:#EDA0C0"/>
				<stop  offset="0.2791" style="stop-color:#EDA3C2"/>
				<stop  offset="0.3284" style="stop-color:#EFACC8"/>
				<stop  offset="0.3779" style="stop-color:#F2BCD2"/>
				<stop  offset="0.4084" style="stop-color:#F5C9DA"/>
				<stop  offset="0.4366" style="stop-color:#F6D0DE"/>
				<stop  offset="0.4825" style="stop-color:#FAE3E9"/>
				<stop  offset="0.5026" style="stop-color:#FCEDEF"/>
				<stop  offset="0.5045" style="stop-color:#FBE9ED"/>
				<stop  offset="0.5131" style="stop-color:#F8DBE4"/>
				<stop  offset="0.5234" style="stop-color:#F6D1DE"/>
				<stop  offset="0.5368" style="stop-color:#F5CBDB"/>
				<stop  offset="0.5654" style="stop-color:#F5C9DA"/>
				<stop  offset="0.6172" style="stop-color:#F2BBD1"/>
				<stop  offset="0.6948" style="stop-color:#EFACC7"/>
				<stop  offset="0.7732" style="stop-color:#EDA3C2"/>
				<stop  offset="0.8534" style="stop-color:#EDA0C0"/>
				<stop  offset="0.8746" style="stop-color:#EC94B7"/>
				<stop  offset="0.9159" style="stop-color:#E874A3"/>
				<stop  offset="0.9729" style="stop-color:#E42D84"/>
				<stop  offset="0.9843" style="stop-color:#E30A7E"/>
			</linearGradient>
			<path class="st3" d="M103.5,35.6c-6.9-2.4-18.6,25.5-26.8,24.2S59.2,29.4,59.2,28.3c0-0.7-1-2.1-2.2-1.8
				c-1.5-0.2-2.2,1.1-2.2,1.8c0,1.1-9.3,30.2-17.5,31.5S16.9,31.5,10,33.9c0,0,13.2,35.2,12.2,58.3c0,0,8.9-1.4,34.7-1.5
				c31.4-0.1,34.8,0.7,34.8,0.7C90.8,68.3,103.5,35.6,103.5,35.6z"/>
			<ellipse class="st4" cx="57" cy="98.6" rx="34.1" ry="4.3"/>
			<g>
				
					<linearGradient id="SVGID_5_" gradientUnits="userSpaceOnUse" x1="21.5" y1="22.365" x2="92.2" y2="22.365" gradientTransform="matrix(1 0 0 -1 0 115.89)">
					<stop  offset="0" style="stop-color:#E30A7E"/>
					<stop  offset="2.921990e-02" style="stop-color:#E5448B"/>
					<stop  offset="7.128689e-02" style="stop-color:#E86B9D"/>
					<stop  offset="0.1131" style="stop-color:#EA83AC"/>
					<stop  offset="0.154" style="stop-color:#EB93B7"/>
					<stop  offset="0.1936" style="stop-color:#EC9CBE"/>
					<stop  offset="0.2304" style="stop-color:#EDA0C0"/>
					<stop  offset="0.2791" style="stop-color:#EDA3C2"/>
					<stop  offset="0.3284" style="stop-color:#EFACC8"/>
					<stop  offset="0.3779" style="stop-color:#F2BCD2"/>
					<stop  offset="0.4084" style="stop-color:#F5C9DA"/>
					<stop  offset="0.4366" style="stop-color:#F6D0DE"/>
					<stop  offset="0.4825" style="stop-color:#FAE3E9"/>
					<stop  offset="0.5026" style="stop-color:#FCEDEF"/>
					<stop  offset="0.5045" style="stop-color:#FBE9ED"/>
					<stop  offset="0.5131" style="stop-color:#F8DBE4"/>
					<stop  offset="0.5234" style="stop-color:#F6D1DE"/>
					<stop  offset="0.5368" style="stop-color:#F5CBDB"/>
					<stop  offset="0.5654" style="stop-color:#F5C9DA"/>
					<stop  offset="0.6172" style="stop-color:#F2BBD1"/>
					<stop  offset="0.6948" style="stop-color:#EFACC7"/>
					<stop  offset="0.7732" style="stop-color:#EDA3C2"/>
					<stop  offset="0.8534" style="stop-color:#EDA0C0"/>
					<stop  offset="0.8746" style="stop-color:#EC94B7"/>
					<stop  offset="0.9159" style="stop-color:#E874A3"/>
					<stop  offset="0.9729" style="stop-color:#E42D84"/>
					<stop  offset="0.9843" style="stop-color:#E30A7E"/>
				</linearGradient>
				<path class="st5" d="M91.1,98.4c-22.8-3.3-45.6-3.3-68.4,0c-0.5-2.9-0.7-4.3-1.2-7.2c23.6-3.4,47.2-3.4,70.7,0
					C91.8,94.1,91.6,95.6,91.1,98.4z"/>
			</g>
			<g>
				
					<linearGradient id="SVGID_6_" gradientUnits="userSpaceOnUse" x1="21.6" y1="25.64" x2="92.301" y2="25.64" gradientTransform="matrix(1 0 0 -1 0 115.89)">
					<stop  offset="0" style="stop-color:#E30A7E"/>
					<stop  offset="2.921990e-02" style="stop-color:#E5448B"/>
					<stop  offset="7.128689e-02" style="stop-color:#E86B9D"/>
					<stop  offset="0.1131" style="stop-color:#EA83AC"/>
					<stop  offset="0.154" style="stop-color:#EB93B7"/>
					<stop  offset="0.1936" style="stop-color:#EC9CBE"/>
					<stop  offset="0.2304" style="stop-color:#EDA0C0"/>
					<stop  offset="0.2791" style="stop-color:#EDA3C2"/>
					<stop  offset="0.3284" style="stop-color:#EFACC8"/>
					<stop  offset="0.3779" style="stop-color:#F2BCD2"/>
					<stop  offset="0.4084" style="stop-color:#F5C9DA"/>
					<stop  offset="0.4366" style="stop-color:#F6D0DE"/>
					<stop  offset="0.4825" style="stop-color:#FAE3E9"/>
					<stop  offset="0.5026" style="stop-color:#FCEDEF"/>
					<stop  offset="0.5045" style="stop-color:#FBE9ED"/>
					<stop  offset="0.5131" style="stop-color:#F8DBE4"/>
					<stop  offset="0.5234" style="stop-color:#F6D1DE"/>
					<stop  offset="0.5368" style="stop-color:#F5CBDB"/>
					<stop  offset="0.5654" style="stop-color:#F5C9DA"/>
					<stop  offset="0.6172" style="stop-color:#F2BBD1"/>
					<stop  offset="0.6948" style="stop-color:#EFACC7"/>
					<stop  offset="0.7732" style="stop-color:#EDA3C2"/>
					<stop  offset="0.8534" style="stop-color:#EDA0C0"/>
					<stop  offset="0.8746" style="stop-color:#EC94B7"/>
					<stop  offset="0.9159" style="stop-color:#E874A3"/>
					<stop  offset="0.9729" style="stop-color:#E42D84"/>
					<stop  offset="0.9843" style="stop-color:#E30A7E"/>
				</linearGradient>
				<path class="st6" d="M92.3,91.1c-11.8-1.7-23.6-2.6-35.4-2.6s-23.6,0.9-35.3,2.6l0.2,0.7c11.4-1.6,23.8-2.5,35.2-2.5l0,0
					c11.4,0,23.8,1.1,35.3,2.7l0.1-0.4L92.3,91.1z"/>
				
					<linearGradient id="SVGID_7_" gradientUnits="userSpaceOnUse" x1="22.7" y1="19.14" x2="91.3111" y2="19.14" gradientTransform="matrix(1 0 0 -1 0 115.89)">
					<stop  offset="0" style="stop-color:#E30A7E"/>
					<stop  offset="2.921990e-02" style="stop-color:#E5448B"/>
					<stop  offset="7.128689e-02" style="stop-color:#E86B9D"/>
					<stop  offset="0.1131" style="stop-color:#EA83AC"/>
					<stop  offset="0.154" style="stop-color:#EB93B7"/>
					<stop  offset="0.1936" style="stop-color:#EC9CBE"/>
					<stop  offset="0.2304" style="stop-color:#EDA0C0"/>
					<stop  offset="0.2791" style="stop-color:#EDA3C2"/>
					<stop  offset="0.3284" style="stop-color:#EFACC8"/>
					<stop  offset="0.3779" style="stop-color:#F2BCD2"/>
					<stop  offset="0.4084" style="stop-color:#F5C9DA"/>
					<stop  offset="0.4366" style="stop-color:#F6D0DE"/>
					<stop  offset="0.4825" style="stop-color:#FAE3E9"/>
					<stop  offset="0.5026" style="stop-color:#FCEDEF"/>
					<stop  offset="0.5045" style="stop-color:#FBE9ED"/>
					<stop  offset="0.5131" style="stop-color:#F8DBE4"/>
					<stop  offset="0.5234" style="stop-color:#F6D1DE"/>
					<stop  offset="0.5368" style="stop-color:#F5CBDB"/>
					<stop  offset="0.5654" style="stop-color:#F5C9DA"/>
					<stop  offset="0.6172" style="stop-color:#F2BBD1"/>
					<stop  offset="0.6948" style="stop-color:#EFACC7"/>
					<stop  offset="0.7732" style="stop-color:#EDA3C2"/>
					<stop  offset="0.8534" style="stop-color:#EDA0C0"/>
					<stop  offset="0.8746" style="stop-color:#EC94B7"/>
					<stop  offset="0.9159" style="stop-color:#E874A3"/>
					<stop  offset="0.9729" style="stop-color:#E42D84"/>
					<stop  offset="0.9843" style="stop-color:#E30A7E"/>
				</linearGradient>
				<path class="st7" d="M56.9,95.1c-11.1,0-23.1,0.9-34.2,2.5l0.1,0.8c11.4-1.6,22.8-2.5,34.1-2.5c11.4,0,22.9,0.9,34.2,2.5
					l0.1-0.8C80.1,96,68,95.1,56.9,95.1z"/>
			</g>
			<g>
				
					<radialGradient id="SVGID_8_" cx="-408.4416" cy="7.844218e-02" r="6.6418" fx="-406.6952" fy="-2.2772" gradientTransform="matrix(-1.0797 0.2005 -0.1826 -0.9832 -419.9987 156.5269)" gradientUnits="userSpaceOnUse">
					<stop  offset="2.272730e-03" style="stop-color:#FFFFFF"/>
					<stop  offset="0.1385" style="stop-color:#EBD0DB"/>
					<stop  offset="0.2949" style="stop-color:#DCA7BE"/>
					<stop  offset="0.4499" style="stop-color:#D187A9"/>
					<stop  offset="0.6003" style="stop-color:#CA709A"/>
					<stop  offset="0.7449" style="stop-color:#C55E8F"/>
					<stop  offset="0.881" style="stop-color:#C25289"/>
					<stop  offset="1" style="stop-color:#C14E87"/>
				</radialGradient>
				<path class="st8" d="M17.7,75.2c0.9,4.8,3.1,8.5,4.9,8.1c1.8-0.3,2.6-4.5,1.7-9.3s-3.1-8.5-4.9-8.1S16.8,70.3,17.7,75.2z"/>
				
					<radialGradient id="SVGID_9_" cx="-51.9491" cy="-1.0084" r="6.0122" fx="-50.3682" fy="-3.1407" gradientTransform="matrix(0.9821 -0.1882 -0.1882 -0.9821 71.8046 63.7888)" gradientUnits="userSpaceOnUse">
					<stop  offset="2.272730e-03" style="stop-color:#FFFFFF"/>
					<stop  offset="0.1006" style="stop-color:#F9E2ED"/>
					<stop  offset="0.264" style="stop-color:#F2BAD4"/>
					<stop  offset="0.4258" style="stop-color:#ED9AC0"/>
					<stop  offset="0.5828" style="stop-color:#EA82B2"/>
					<stop  offset="0.7337" style="stop-color:#E870A9"/>
					<stop  offset="0.8757" style="stop-color:#E764A3"/>
					<stop  offset="1" style="stop-color:#E65FA1"/>
				</radialGradient>
				<path class="st9" d="M23.7,74c0.8,4.4,0.3,8.1-1.2,8.4s-3.4-3-4.2-7.4s-0.3-8.1,1.2-8.4C21,66.4,22.8,69.7,23.7,74z"/>
			</g>
			<g>
				
					<radialGradient id="SVGID_10_" cx="-55.8857" cy="71.9747" r="6.6418" fx="-54.1393" fy="69.6191" gradientTransform="matrix(1.0797 0.2005 0.1826 -0.9832 139.8618 156.5269)" gradientUnits="userSpaceOnUse">
					<stop  offset="2.272730e-03" style="stop-color:#FFFFFF"/>
					<stop  offset="0.1385" style="stop-color:#EBD0DB"/>
					<stop  offset="0.2949" style="stop-color:#DCA7BE"/>
					<stop  offset="0.4499" style="stop-color:#D187A9"/>
					<stop  offset="0.6003" style="stop-color:#CA709A"/>
					<stop  offset="0.7449" style="stop-color:#C55E8F"/>
					<stop  offset="0.881" style="stop-color:#C25289"/>
					<stop  offset="1" style="stop-color:#C14E87"/>
				</radialGradient>
				<path class="st10" d="M96,75.2c-0.9,4.8-3.1,8.5-4.9,8.1c-1.8-0.3-2.6-4.5-1.7-9.3s3.1-8.5,4.9-8.1S96.8,70.3,96,75.2z"/>
				
					<radialGradient id="SVGID_11_" cx="-438.7081" cy="73.1033" r="6.0122" fx="-437.1272" fy="70.971" gradientTransform="matrix(-0.9821 -0.1882 0.1882 -0.9821 -351.9414 63.7888)" gradientUnits="userSpaceOnUse">
					<stop  offset="2.272730e-03" style="stop-color:#FFFFFF"/>
					<stop  offset="0.1006" style="stop-color:#F9E2ED"/>
					<stop  offset="0.264" style="stop-color:#F2BAD4"/>
					<stop  offset="0.4258" style="stop-color:#ED9AC0"/>
					<stop  offset="0.5828" style="stop-color:#EA82B2"/>
					<stop  offset="0.7337" style="stop-color:#E870A9"/>
					<stop  offset="0.8757" style="stop-color:#E764A3"/>
					<stop  offset="1" style="stop-color:#E65FA1"/>
				</radialGradient>
				<path class="st11" d="M90,74c-0.8,4.4-0.3,8.1,1.2,8.4s3.4-3,4.2-7.4c0.8-4.4,0.3-8.1-1.2-8.4C92.7,66.4,90.8,69.7,90,74z"/>
			</g>
			<g>
				<path class="st12" d="M68.5,60c-5.8-5.4-10.9,0.8-11.7,2.1c-0.7-1.3-5.2-7.7-11.2-2.5c-6.7,5.8,2.4,19.7,10.9,24.6l0,0
					C65.1,79.7,75,66,68.5,60z"/>
				<g>
					<path class="st13" d="M67.1,59.8c-5.7-5.1-10.5,1-11.2,2.2c-0.7-1.2-5.1-7.2-10.9-2.2c-6.3,5.6,2.7,18.8,10.9,23.2l0,0
						C64.1,78.6,73.4,65.4,67.1,59.8z"/>
					<polygon class="st14" points="55.6,75.4 50.3,68.6 50.8,63.4 55.9,62 61.3,64.2 61.2,69.1 					"/>
					<path class="st15" d="M50.8,63.4l0.6-5.3c0,0,2.7,0.9,4.5,3.8L50.8,63.4z"/>
					<path class="st15" d="M61.3,64.2l-1-6c0,0-2.7,0.8-4.5,3.8L61.3,64.2z"/>
					<polygon class="st15" points="50.8,63.4 46.6,64.7 50.3,68.6 					"/>
					<polygon class="st15" points="61.2,69.1 61.3,64.2 65.1,64.9 					"/>
					<polygon class="st15" points="55.6,75.4 53.2,78.1 55.9,83 58.3,78.5 					"/>
					<polygon class="st15" points="61.2,69.1 63.8,76.4 55.6,75.4 					"/>
					<polygon class="st15" points="50.3,68.6 48.1,76.4 55.6,75.4 					"/>
					<polygon class="st16" points="53.2,78.1 48.1,76.4 55.6,75.4 					"/>
					<polygon class="st16" points="58.3,78.5 63.8,76.4 55.6,75.4 					"/>
					<polygon class="st17" points="65.1,64.9 67,71.7 61.2,69.1 					"/>
					<polygon class="st16" points="46.6,64.7 43.6,68.8 50.3,68.6 					"/>
					<polygon class="st16" points="60.4,58.1 65.1,64.9 61.3,64.2 					"/>
					<polygon class="st17" points="46.6,64.7 51.4,58.1 50.8,63.4 					"/>
					<polygon class="st15" points="60.4,58.1 67.3,59.9 65.1,64.9 					"/>
					<polygon class="st15" points="51.4,58.1 45,59.8 46.6,64.7 					"/>
				</g>
			</g>
			
				<radialGradient id="SVGID_12_" cx="56.9751" cy="94.29" r="5.8233" fx="58.5063" fy="92.2248" gradientTransform="matrix(1 0 0 -1 0 115.89)" gradientUnits="userSpaceOnUse">
				<stop  offset="2.272730e-03" style="stop-color:#FFFFFF"/>
				<stop  offset="0.1006" style="stop-color:#F9E2ED"/>
				<stop  offset="0.264" style="stop-color:#F2BAD4"/>
				<stop  offset="0.4258" style="stop-color:#ED9AC0"/>
				<stop  offset="0.5828" style="stop-color:#EA82B2"/>
				<stop  offset="0.7337" style="stop-color:#E870A9"/>
				<stop  offset="0.8757" style="stop-color:#E764A3"/>
				<stop  offset="1" style="stop-color:#E65FA1"/>
			</radialGradient>
			<circle class="st18" cx="57" cy="21.6" r="5.8"/>
			
				<radialGradient id="SVGID_13_" cx="10.0324" cy="84.4436" r="5.4522" fx="11.466" fy="82.5099" gradientTransform="matrix(1 0 0 -1 0 115.89)" gradientUnits="userSpaceOnUse">
				<stop  offset="2.272730e-03" style="stop-color:#FFFFFF"/>
				<stop  offset="0.1006" style="stop-color:#F9E2ED"/>
				<stop  offset="0.264" style="stop-color:#F2BAD4"/>
				<stop  offset="0.4258" style="stop-color:#ED9AC0"/>
				<stop  offset="0.5828" style="stop-color:#EA82B2"/>
				<stop  offset="0.7337" style="stop-color:#E870A9"/>
				<stop  offset="0.8757" style="stop-color:#E764A3"/>
				<stop  offset="1" style="stop-color:#E65FA1"/>
			</radialGradient>
			<circle class="st19" cx="10" cy="31.4" r="5.5"/>
			
				<radialGradient id="SVGID_14_" cx="104.6239" cy="84.4436" r="5.4522" fx="106.0576" fy="82.5099" gradientTransform="matrix(1 0 0 -1 0 115.89)" gradientUnits="userSpaceOnUse">
				<stop  offset="2.272730e-03" style="stop-color:#FFFFFF"/>
				<stop  offset="0.1006" style="stop-color:#F9E2ED"/>
				<stop  offset="0.264" style="stop-color:#F2BAD4"/>
				<stop  offset="0.4258" style="stop-color:#ED9AC0"/>
				<stop  offset="0.5828" style="stop-color:#EA82B2"/>
				<stop  offset="0.7337" style="stop-color:#E870A9"/>
				<stop  offset="0.8757" style="stop-color:#E764A3"/>
				<stop  offset="1" style="stop-color:#E65FA1"/>
			</radialGradient>
			<circle class="st20" cx="104.6" cy="31.4" r="5.5"/>
		</g>
	</g>
</g>
</svg>
