<?xml version="1.0" encoding="utf-8"?>
<!-- Generator: Adobe Illustrator 21.1.0, SVG Export Plug-In . SVG Version: 6.00 Build 0)  -->
<svg version="1.1" id="Layer_1" xmlns="http://www.w3.org/2000/svg" xmlns:xlink="http://www.w3.org/1999/xlink" x="0px" y="0px"
	 viewBox="0 0 153.5 157.8" style="enable-background:new 0 0 153.5 157.8;" xml:space="preserve">
<style type="text/css">
	.st0{fill:url(#SVGID_1_);}
	.st1{fill:url(#SVGID_2_);}
	.st2{fill:url(#SVGID_3_);}
	.st3{fill:url(#SVGID_4_);}
	.st4{fill:#B3258F;}
	.st5{fill:url(#SVGID_5_);}
	.st6{fill:url(#SVGID_6_);}
	.st7{fill:url(#SVGID_7_);}
	.st8{fill:url(#SVGID_8_);}
	.st9{fill:url(#SVGID_9_);}
	.st10{fill:url(#SVGID_10_);}
	.st11{fill:url(#SVGID_11_);}
	.st12{fill:#E6198E;}
	.st13{fill:#E985B6;}
	.st14{fill:#F6CDE1;}
	.st15{fill:#F0B2D1;}
	.st16{fill:#FAE2EE;}
	.st17{fill:#FFFFFF;}
	.st18{fill:url(#SVGID_12_);}
	.st19{fill:url(#SVGID_13_);}
	.st20{fill:url(#SVGID_14_);}
</style>
<g>
	
		<radialGradient id="SVGID_1_" cx="76.6" cy="78.54" r="76.375" gradientTransform="matrix(1 0 0 -1 0 157.89)" gradientUnits="userSpaceOnUse">
		<stop  offset="0.5185" style="stop-color:#FFFFFF"/>
		<stop  offset="0.9986" style="stop-color:#AFD136"/>
	</radialGradient>
	<path class="st0" d="M76.6,155.7L76.6,155.7c-42.2,0-76.4-34.2-76.4-76.4l0,0C0.2,37.2,34.4,3,76.6,3l0,0
		C118.8,3,153,37.2,153,79.4l0,0C153,121.6,118.8,155.7,76.6,155.7z"/>
	<g>
		<g>
			
				<linearGradient id="SVGID_2_" gradientUnits="userSpaceOnUse" x1="9" y1="78.405" x2="142.4" y2="78.405" gradientTransform="matrix(1 0 0 -1 0 157.89)">
				<stop  offset="0" style="stop-color:#E4087E"/>
				<stop  offset="2.921990e-02" style="stop-color:#E6448C"/>
				<stop  offset="7.128689e-02" style="stop-color:#E96B9E"/>
				<stop  offset="0.1131" style="stop-color:#EB83AD"/>
				<stop  offset="0.154" style="stop-color:#ED93B8"/>
				<stop  offset="0.1936" style="stop-color:#EE9DBF"/>
				<stop  offset="0.2304" style="stop-color:#EFA0C1"/>
				<stop  offset="0.2791" style="stop-color:#EFA3C3"/>
				<stop  offset="0.3284" style="stop-color:#F1ADC9"/>
				<stop  offset="0.3779" style="stop-color:#F4BDD3"/>
				<stop  offset="0.4084" style="stop-color:#F6CADB"/>
				<stop  offset="0.4362" style="stop-color:#F7D1DF"/>
				<stop  offset="0.4814" style="stop-color:#FAE4EA"/>
				<stop  offset="0.5026" style="stop-color:#FCEEF0"/>
				<stop  offset="0.5049" style="stop-color:#FBEAED"/>
				<stop  offset="0.5134" style="stop-color:#F9DBE5"/>
				<stop  offset="0.5236" style="stop-color:#F8D1DF"/>
				<stop  offset="0.5369" style="stop-color:#F7CCDC"/>
				<stop  offset="0.5654" style="stop-color:#F6CADB"/>
				<stop  offset="0.6172" style="stop-color:#F4BCD2"/>
				<stop  offset="0.6948" style="stop-color:#F1ACC9"/>
				<stop  offset="0.7732" style="stop-color:#EFA3C3"/>
				<stop  offset="0.8534" style="stop-color:#EFA0C1"/>
				<stop  offset="0.8746" style="stop-color:#ED94B9"/>
				<stop  offset="0.9159" style="stop-color:#EA74A4"/>
				<stop  offset="0.9729" style="stop-color:#E52D84"/>
				<stop  offset="0.9843" style="stop-color:#E4087E"/>
			</linearGradient>
			<path class="st1" d="M142.4,44.6c-10-3.5-26.5,35.9-38.2,34c-11.9-1.9-25.3-42.3-25.3-43.9c0-1.1-1.9-1.1-3.2-1.1
				c-1.3-0.1-3.2,0-3.2,1.1c0,1.6-13.4,42-25.3,43.9C35.5,80.5,19,41,9,44.6c0,0,22.9,46.8,21.6,80.8c0,0,7.8-1.3,45.1-1.3
				c37.2,0,45.1,1.3,45.1,1.3C119.5,91.4,142.4,44.6,142.4,44.6z"/>
			
				<linearGradient id="SVGID_3_" gradientUnits="userSpaceOnUse" x1="9" y1="78.405" x2="142.4" y2="78.405" gradientTransform="matrix(1 0 0 -1 0 157.89)">
				<stop  offset="0" style="stop-color:#E4087E"/>
				<stop  offset="2.921990e-02" style="stop-color:#E6448C"/>
				<stop  offset="7.128689e-02" style="stop-color:#E96B9E"/>
				<stop  offset="0.1131" style="stop-color:#EB83AD"/>
				<stop  offset="0.154" style="stop-color:#ED93B8"/>
				<stop  offset="0.1936" style="stop-color:#EE9DBF"/>
				<stop  offset="0.2304" style="stop-color:#EFA0C1"/>
				<stop  offset="0.2791" style="stop-color:#EFA3C3"/>
				<stop  offset="0.3284" style="stop-color:#F1ADC9"/>
				<stop  offset="0.3779" style="stop-color:#F4BDD3"/>
				<stop  offset="0.4084" style="stop-color:#F6CADB"/>
				<stop  offset="0.4362" style="stop-color:#F7D1DF"/>
				<stop  offset="0.4814" style="stop-color:#FAE4EA"/>
				<stop  offset="0.5026" style="stop-color:#FCEEF0"/>
				<stop  offset="0.5049" style="stop-color:#FBEAED"/>
				<stop  offset="0.5134" style="stop-color:#F9DBE5"/>
				<stop  offset="0.5236" style="stop-color:#F8D1DF"/>
				<stop  offset="0.5369" style="stop-color:#F7CCDC"/>
				<stop  offset="0.5654" style="stop-color:#F6CADB"/>
				<stop  offset="0.6172" style="stop-color:#F4BCD2"/>
				<stop  offset="0.6948" style="stop-color:#F1ACC9"/>
				<stop  offset="0.7732" style="stop-color:#EFA3C3"/>
				<stop  offset="0.8534" style="stop-color:#EFA0C1"/>
				<stop  offset="0.8746" style="stop-color:#ED94B9"/>
				<stop  offset="0.9159" style="stop-color:#EA74A4"/>
				<stop  offset="0.9729" style="stop-color:#E52D84"/>
				<stop  offset="0.9843" style="stop-color:#E4087E"/>
			</linearGradient>
			<path class="st2" d="M142.4,44.6c-10-3.5-26.5,35.9-38.2,34c-11.9-1.9-25.3-42.3-25.3-43.9c0-1.1-1.9-1.1-3.2-1.1
				c-1.3-0.1-3.2,0-3.2,1.1c0,1.6-13.4,42-25.3,43.9C35.5,80.5,19,41,9,44.6c0,0,22.9,46.8,21.6,80.8c0,0,7.8-1.3,45.1-1.3
				c37.2,0,45.1,1.3,45.1,1.3C119.5,91.4,142.4,44.6,142.4,44.6z"/>
			
				<linearGradient id="SVGID_4_" gradientUnits="userSpaceOnUse" x1="12.3609" y1="76.0685" x2="138.522" y2="76.0685" gradientTransform="matrix(1 0 0 -1 0 157.89)">
				<stop  offset="0" style="stop-color:#E4087E"/>
				<stop  offset="2.921990e-02" style="stop-color:#E6448C"/>
				<stop  offset="7.128689e-02" style="stop-color:#E96B9E"/>
				<stop  offset="0.1131" style="stop-color:#EB83AD"/>
				<stop  offset="0.154" style="stop-color:#ED93B8"/>
				<stop  offset="0.1936" style="stop-color:#EE9DBF"/>
				<stop  offset="0.2304" style="stop-color:#EFA0C1"/>
				<stop  offset="0.2791" style="stop-color:#EFA3C3"/>
				<stop  offset="0.3284" style="stop-color:#F1ADC9"/>
				<stop  offset="0.3779" style="stop-color:#F4BDD3"/>
				<stop  offset="0.4084" style="stop-color:#F6CADB"/>
				<stop  offset="0.4362" style="stop-color:#F7D1DF"/>
				<stop  offset="0.4814" style="stop-color:#FAE4EA"/>
				<stop  offset="0.5026" style="stop-color:#FCEEF0"/>
				<stop  offset="0.5049" style="stop-color:#FBEAED"/>
				<stop  offset="0.5134" style="stop-color:#F9DBE5"/>
				<stop  offset="0.5236" style="stop-color:#F8D1DF"/>
				<stop  offset="0.5369" style="stop-color:#F7CCDC"/>
				<stop  offset="0.5654" style="stop-color:#F6CADB"/>
				<stop  offset="0.6172" style="stop-color:#F4BCD2"/>
				<stop  offset="0.6948" style="stop-color:#F1ACC9"/>
				<stop  offset="0.7732" style="stop-color:#EFA3C3"/>
				<stop  offset="0.8534" style="stop-color:#EFA0C1"/>
				<stop  offset="0.8746" style="stop-color:#ED94B9"/>
				<stop  offset="0.9159" style="stop-color:#EA74A4"/>
				<stop  offset="0.9729" style="stop-color:#E52D84"/>
				<stop  offset="0.9843" style="stop-color:#E4087E"/>
			</linearGradient>
			<path class="st3" d="M138.5,49.7c-9.3-3.2-25.2,34.4-36.2,32.7c-11.1-1.8-23.7-41-23.7-42.5c0-1-1.4-2.8-3-2.4
				c-2-0.2-3,1.4-3,2.4c0,1.5-12.6,40.7-23.7,42.5c-11,1.7-27.4-38.2-36.7-34.9c0,0,17.8,47.6,16.5,78.7c0,0,12-1.9,46.8-2
				c42.3-0.1,46.9,1,46.9,1C121.4,93.9,138.5,49.7,138.5,49.7z"/>
			<ellipse class="st4" cx="75.8" cy="134.7" rx="46.1" ry="5.8"/>
			<g>
				
					<linearGradient id="SVGID_5_" gradientUnits="userSpaceOnUse" x1="28" y1="29.915" x2="123.5" y2="29.915" gradientTransform="matrix(1 0 0 -1 0 157.89)">
					<stop  offset="0" style="stop-color:#E4087E"/>
					<stop  offset="2.921990e-02" style="stop-color:#E6448C"/>
					<stop  offset="7.128689e-02" style="stop-color:#E96B9E"/>
					<stop  offset="0.1131" style="stop-color:#EB83AD"/>
					<stop  offset="0.154" style="stop-color:#ED93B8"/>
					<stop  offset="0.1936" style="stop-color:#EE9DBF"/>
					<stop  offset="0.2304" style="stop-color:#EFA0C1"/>
					<stop  offset="0.2791" style="stop-color:#EFA3C3"/>
					<stop  offset="0.3284" style="stop-color:#F1ADC9"/>
					<stop  offset="0.3779" style="stop-color:#F4BDD3"/>
					<stop  offset="0.4084" style="stop-color:#F6CADB"/>
					<stop  offset="0.4362" style="stop-color:#F7D1DF"/>
					<stop  offset="0.4814" style="stop-color:#FAE4EA"/>
					<stop  offset="0.5026" style="stop-color:#FCEEF0"/>
					<stop  offset="0.5049" style="stop-color:#FBEAED"/>
					<stop  offset="0.5134" style="stop-color:#F9DBE5"/>
					<stop  offset="0.5236" style="stop-color:#F8D1DF"/>
					<stop  offset="0.5369" style="stop-color:#F7CCDC"/>
					<stop  offset="0.5654" style="stop-color:#F6CADB"/>
					<stop  offset="0.6172" style="stop-color:#F4BCD2"/>
					<stop  offset="0.6948" style="stop-color:#F1ACC9"/>
					<stop  offset="0.7732" style="stop-color:#EFA3C3"/>
					<stop  offset="0.8534" style="stop-color:#EFA0C1"/>
					<stop  offset="0.8746" style="stop-color:#ED94B9"/>
					<stop  offset="0.9159" style="stop-color:#EA74A4"/>
					<stop  offset="0.9729" style="stop-color:#E52D84"/>
					<stop  offset="0.9843" style="stop-color:#E4087E"/>
				</linearGradient>
				<path class="st5" d="M121.9,134.6c-30.8-4.4-61.5-4.4-92.3,0c-0.6-3.9-1-5.9-1.6-9.8c31.8-4.6,63.7-4.6,95.5,0
					C122.8,128.7,122.5,130.7,121.9,134.6z"/>
			</g>
			<g>
				
					<linearGradient id="SVGID_6_" gradientUnits="userSpaceOnUse" x1="28" y1="34.34" x2="123.4" y2="34.34" gradientTransform="matrix(1 0 0 -1 0 157.89)">
					<stop  offset="0" style="stop-color:#E4087E"/>
					<stop  offset="2.921990e-02" style="stop-color:#E6448C"/>
					<stop  offset="7.128689e-02" style="stop-color:#E96B9E"/>
					<stop  offset="0.1131" style="stop-color:#EB83AD"/>
					<stop  offset="0.154" style="stop-color:#ED93B8"/>
					<stop  offset="0.1936" style="stop-color:#EE9DBF"/>
					<stop  offset="0.2304" style="stop-color:#EFA0C1"/>
					<stop  offset="0.2791" style="stop-color:#EFA3C3"/>
					<stop  offset="0.3284" style="stop-color:#F1ADC9"/>
					<stop  offset="0.3779" style="stop-color:#F4BDD3"/>
					<stop  offset="0.4084" style="stop-color:#F6CADB"/>
					<stop  offset="0.4362" style="stop-color:#F7D1DF"/>
					<stop  offset="0.4814" style="stop-color:#FAE4EA"/>
					<stop  offset="0.5026" style="stop-color:#FCEEF0"/>
					<stop  offset="0.5049" style="stop-color:#FBEAED"/>
					<stop  offset="0.5134" style="stop-color:#F9DBE5"/>
					<stop  offset="0.5236" style="stop-color:#F8D1DF"/>
					<stop  offset="0.5369" style="stop-color:#F7CCDC"/>
					<stop  offset="0.5654" style="stop-color:#F6CADB"/>
					<stop  offset="0.6172" style="stop-color:#F4BCD2"/>
					<stop  offset="0.6948" style="stop-color:#F1ACC9"/>
					<stop  offset="0.7732" style="stop-color:#EFA3C3"/>
					<stop  offset="0.8534" style="stop-color:#EFA0C1"/>
					<stop  offset="0.8746" style="stop-color:#ED94B9"/>
					<stop  offset="0.9159" style="stop-color:#EA74A4"/>
					<stop  offset="0.9729" style="stop-color:#E52D84"/>
					<stop  offset="0.9843" style="stop-color:#E4087E"/>
				</linearGradient>
				<path class="st6" d="M123.4,124.7c-15.9-2.3-31.8-3.5-47.7-3.5s-31.8,1.2-47.7,3.5l0.2,1c15.4-2.2,32.1-3.4,47.5-3.4l0,0
					c15.4,0,32.2,1.4,47.6,3.6l0.1-0.6L123.4,124.7z"/>
				
					<linearGradient id="SVGID_7_" gradientUnits="userSpaceOnUse" x1="29.5" y1="25.64" x2="122.2" y2="25.64" gradientTransform="matrix(1 0 0 -1 0 157.89)">
					<stop  offset="0" style="stop-color:#E4087E"/>
					<stop  offset="2.921990e-02" style="stop-color:#E6448C"/>
					<stop  offset="7.128689e-02" style="stop-color:#E96B9E"/>
					<stop  offset="0.1131" style="stop-color:#EB83AD"/>
					<stop  offset="0.154" style="stop-color:#ED93B8"/>
					<stop  offset="0.1936" style="stop-color:#EE9DBF"/>
					<stop  offset="0.2304" style="stop-color:#EFA0C1"/>
					<stop  offset="0.2791" style="stop-color:#EFA3C3"/>
					<stop  offset="0.3284" style="stop-color:#F1ADC9"/>
					<stop  offset="0.3779" style="stop-color:#F4BDD3"/>
					<stop  offset="0.4084" style="stop-color:#F6CADB"/>
					<stop  offset="0.4362" style="stop-color:#F7D1DF"/>
					<stop  offset="0.4814" style="stop-color:#FAE4EA"/>
					<stop  offset="0.5026" style="stop-color:#FCEEF0"/>
					<stop  offset="0.5049" style="stop-color:#FBEAED"/>
					<stop  offset="0.5134" style="stop-color:#F9DBE5"/>
					<stop  offset="0.5236" style="stop-color:#F8D1DF"/>
					<stop  offset="0.5369" style="stop-color:#F7CCDC"/>
					<stop  offset="0.5654" style="stop-color:#F6CADB"/>
					<stop  offset="0.6172" style="stop-color:#F4BCD2"/>
					<stop  offset="0.6948" style="stop-color:#F1ACC9"/>
					<stop  offset="0.7732" style="stop-color:#EFA3C3"/>
					<stop  offset="0.8534" style="stop-color:#EFA0C1"/>
					<stop  offset="0.8746" style="stop-color:#ED94B9"/>
					<stop  offset="0.9159" style="stop-color:#EA74A4"/>
					<stop  offset="0.9729" style="stop-color:#E52D84"/>
					<stop  offset="0.9843" style="stop-color:#E4087E"/>
				</linearGradient>
				<path class="st7" d="M75.7,130c-15,0-31.2,1.2-46.2,3.3l0.2,1.1c15.4-2.2,30.7-3.3,46.1-3.3c15.3,0,30.9,1.2,46.2,3.4l0.2-1.1
					C107,131.3,90.6,130,75.7,130z"/>
			</g>
			<g>
				
					<radialGradient id="SVGID_8_" cx="-335.0406" cy="20.79" r="8.9603" fx="-332.6845" fy="17.6121" gradientTransform="matrix(-1.0797 0.2005 -0.1826 -0.9832 -330.7621 189.9191)" gradientUnits="userSpaceOnUse">
					<stop  offset="2.272730e-03" style="stop-color:#FFFFFF"/>
					<stop  offset="0.1052" style="stop-color:#EFD7E3"/>
					<stop  offset="0.2677" style="stop-color:#DFAAC4"/>
					<stop  offset="0.4287" style="stop-color:#D387AC"/>
					<stop  offset="0.5849" style="stop-color:#CA6E9B"/>
					<stop  offset="0.735" style="stop-color:#C45C90"/>
					<stop  offset="0.8764" style="stop-color:#C15089"/>
					<stop  offset="1" style="stop-color:#C04B86"/>
				</radialGradient>
				<path class="st8" d="M22.8,103.1c1.2,6.5,4.2,11.4,6.6,11s3.5-6.1,2.2-12.6c-1.2-6.5-4.2-11.4-6.6-11S21.5,96.6,22.8,103.1z"/>
				
					<radialGradient id="SVGID_9_" cx="-41.1647" cy="19.8741" r="8.116" fx="-39.0306" fy="16.9957" gradientTransform="matrix(0.9821 -0.1882 -0.1882 -0.9821 71.3474 114.0901)" gradientUnits="userSpaceOnUse">
					<stop  offset="2.272730e-03" style="stop-color:#FFFFFF"/>
					<stop  offset="0.1052" style="stop-color:#FAE1ED"/>
					<stop  offset="0.2677" style="stop-color:#F4BAD5"/>
					<stop  offset="0.4287" style="stop-color:#F09AC2"/>
					<stop  offset="0.5849" style="stop-color:#ED82B4"/>
					<stop  offset="0.735" style="stop-color:#EB6FAA"/>
					<stop  offset="0.8764" style="stop-color:#EA63A4"/>
					<stop  offset="1" style="stop-color:#E95EA2"/>
				</radialGradient>
				<path class="st9" d="M30.8,101.6c1.1,5.9,0.4,11-1.6,11.4s-4.6-4.1-5.7-10c-1.1-5.9-0.4-11,1.6-11.4S29.7,95.7,30.8,101.6z"/>
			</g>
			<g>
				
					<radialGradient id="SVGID_10_" cx="-26.7768" cy="83.6355" r="8.9659" fx="-24.4191" fy="80.4557" gradientTransform="matrix(1.0797 0.2005 0.1826 -0.9832 137.5917 189.9191)" gradientUnits="userSpaceOnUse">
					<stop  offset="2.272730e-03" style="stop-color:#FFFFFF"/>
					<stop  offset="0.1052" style="stop-color:#EFD7E3"/>
					<stop  offset="0.2677" style="stop-color:#DFAAC4"/>
					<stop  offset="0.4287" style="stop-color:#D387AC"/>
					<stop  offset="0.5849" style="stop-color:#CA6E9B"/>
					<stop  offset="0.735" style="stop-color:#C45C90"/>
					<stop  offset="0.8764" style="stop-color:#C15089"/>
					<stop  offset="1" style="stop-color:#C04B86"/>
				</radialGradient>
				<path class="st10" d="M128.4,103.1c-1.2,6.5-4.2,11.4-6.6,11c-2.4-0.5-3.5-6.1-2.2-12.6c1.2-6.5,4.2-11.4,6.6-11
					C128.6,90.9,129.6,96.6,128.4,103.1z"/>
				
					<radialGradient id="SVGID_11_" cx="-379.3354" cy="84.6937" r="8.1031" fx="-377.2047" fy="81.8199" gradientTransform="matrix(-0.9821 -0.1882 0.1882 -0.9821 -264.5177 114.0901)" gradientUnits="userSpaceOnUse">
					<stop  offset="2.272730e-03" style="stop-color:#FFFFFF"/>
					<stop  offset="0.1052" style="stop-color:#FAE1ED"/>
					<stop  offset="0.2677" style="stop-color:#F4BAD5"/>
					<stop  offset="0.4287" style="stop-color:#F09AC2"/>
					<stop  offset="0.5849" style="stop-color:#ED82B4"/>
					<stop  offset="0.735" style="stop-color:#EB6FAA"/>
					<stop  offset="0.8764" style="stop-color:#EA63A4"/>
					<stop  offset="1" style="stop-color:#E95EA2"/>
				</radialGradient>
				<path class="st11" d="M120.3,101.6c-1.1,5.9-0.4,11,1.6,11.4s4.6-4.1,5.7-10s0.4-11-1.6-11.4C124,91.3,121.4,95.7,120.3,101.6z"
					/>
			</g>
			<g>
				<path class="st12" d="M91.3,82.6c-7.9-7.3-14.7,1.1-15.7,2.8c-1-1.7-7-10.4-15.2-3.3c-9,7.8,3.3,26.7,14.7,33.2l0,0
					C86.7,109.2,100.1,90.8,91.3,82.6z"/>
				<g>
					<path class="st13" d="M89.4,82.3c-7.7-6.9-14.2,1.3-15.1,3c-1-1.6-7-9.8-14.7-2.9c-8.5,7.6,3.6,25.4,14.7,31.4l0,0
						C85.4,107.8,98,89.9,89.4,82.3z"/>
					<polygon class="st14" points="73.9,103.5 66.8,94.2 67.4,87.2 74.3,85.3 81.7,88.3 81.4,94.9 					"/>
					<path class="st15" d="M67.4,87.2l0.8-7.1c0,0,3.7,1.2,6.1,5.2L67.4,87.2z"/>
					<path class="st15" d="M81.7,88.3l-1.3-8.1c0,0-3.7,1.1-6.1,5.1L81.7,88.3z"/>
					<polygon class="st15" points="67.4,87.2 61.7,89.1 66.8,94.2 					"/>
					<polygon class="st15" points="81.4,94.9 81.7,88.3 86.8,89.3 					"/>
					<polygon class="st15" points="73.9,103.5 70.6,107 74.3,113.8 77.6,107.6 					"/>
					<polygon class="st15" points="81.4,94.9 84.9,104.7 73.9,103.5 					"/>
					<polygon class="st15" points="66.8,94.2 63.8,104.8 73.9,103.5 					"/>
					<polygon class="st16" points="70.6,107 63.8,104.8 73.9,103.5 					"/>
					<polygon class="st16" points="77.6,107.6 84.9,104.7 73.9,103.5 					"/>
					<polygon class="st17" points="86.8,89.3 89.3,98.4 81.4,94.9 					"/>
					<polygon class="st16" points="61.7,89.1 57.7,94.5 66.8,94.2 					"/>
					<polygon class="st16" points="80.4,80.2 86.8,89.3 81.7,88.3 					"/>
					<polygon class="st17" points="61.7,89.1 68.2,80.1 67.4,87.2 					"/>
					<polygon class="st15" points="80.4,80.2 89.7,82.6 86.8,89.3 					"/>
					<polygon class="st15" points="68.2,80.1 59.6,82.4 61.7,89.1 					"/>
				</g>
			</g>
			
				<radialGradient id="SVGID_12_" cx="75.7761" cy="127.0442" r="7.8678" fx="77.8449" fy="124.2539" gradientTransform="matrix(1 0 0 -1 0 157.89)" gradientUnits="userSpaceOnUse">
				<stop  offset="2.272730e-03" style="stop-color:#FFFFFF"/>
				<stop  offset="0.1052" style="stop-color:#FAE1ED"/>
				<stop  offset="0.2677" style="stop-color:#F4BAD5"/>
				<stop  offset="0.4287" style="stop-color:#F09AC2"/>
				<stop  offset="0.5849" style="stop-color:#ED82B4"/>
				<stop  offset="0.735" style="stop-color:#EB6FAA"/>
				<stop  offset="0.8764" style="stop-color:#EA63A4"/>
				<stop  offset="1" style="stop-color:#E95EA2"/>
			</radialGradient>
			<circle class="st18" cx="75.8" cy="30.8" r="7.9"/>
			
				<radialGradient id="SVGID_13_" cx="12.4" cy="113.7658" r="7.3636" fx="14.3361" fy="111.1543" gradientTransform="matrix(1 0 0 -1 0 157.89)" gradientUnits="userSpaceOnUse">
				<stop  offset="2.272730e-03" style="stop-color:#FFFFFF"/>
				<stop  offset="0.1052" style="stop-color:#FAE1ED"/>
				<stop  offset="0.2677" style="stop-color:#F4BAD5"/>
				<stop  offset="0.4287" style="stop-color:#F09AC2"/>
				<stop  offset="0.5849" style="stop-color:#ED82B4"/>
				<stop  offset="0.735" style="stop-color:#EB6FAA"/>
				<stop  offset="0.8764" style="stop-color:#EA63A4"/>
				<stop  offset="1" style="stop-color:#E95EA2"/>
			</radialGradient>
			<circle class="st19" cx="12.4" cy="44.1" r="7.4"/>
			
				<radialGradient id="SVGID_14_" cx="140.1" cy="113.7658" r="7.3593" fx="142.035" fy="111.1558" gradientTransform="matrix(1 0 0 -1 0 157.89)" gradientUnits="userSpaceOnUse">
				<stop  offset="2.272730e-03" style="stop-color:#FFFFFF"/>
				<stop  offset="0.1052" style="stop-color:#FAE1ED"/>
				<stop  offset="0.2677" style="stop-color:#F4BAD5"/>
				<stop  offset="0.4287" style="stop-color:#F09AC2"/>
				<stop  offset="0.5849" style="stop-color:#ED82B4"/>
				<stop  offset="0.735" style="stop-color:#EB6FAA"/>
				<stop  offset="0.8764" style="stop-color:#EA63A4"/>
				<stop  offset="1" style="stop-color:#E95EA2"/>
			</radialGradient>
			<circle class="st20" cx="140.1" cy="44.1" r="7.4"/>
		</g>
	</g>
</g>
</svg>
