<?xml version="1.0" encoding="utf-8"?>
<!-- Generator: Adobe Illustrator 21.1.0, SVG Export Plug-In . SVG Version: 6.00 Build 0)  -->
<svg version="1.1" id="Layer_1" xmlns="http://www.w3.org/2000/svg" xmlns:xlink="http://www.w3.org/1999/xlink" x="0px" y="0px"
	 viewBox="0 0 276.6 92.1" style="enable-background:new 0 0 276.6 92.1;" xml:space="preserve">
<style type="text/css">
	.st0{fill:#AFCA36;}
	.st1{fill:#FFFFFF;}
</style>
<g>
	<path class="st0" d="M255.9,91.9H20.8c-11.4,0-20.6-9.2-20.6-20.6V20.8C0.2,9.4,9.4,0.2,20.8,0.2h235.1c11.4,0,20.6,9.2,20.6,20.6
		v50.5C276.5,82.7,267.3,91.9,255.9,91.9z"/>
	<g>
		<path class="st1" d="M90.4,59.3V31.8h5.5v10.8h10.8V31.8h5.5v27.4h-5.5v-12H95.9v12H90.4z"/>
		<path class="st1" d="M118,59.3V31.8h20.3v4.6h-14.8v6.1h13.8v4.6h-13.8v7.5h15.3v4.6H118z"/>
		<path class="st1" d="M143.7,59.3V32.1h5.5v22.6H163v4.6H143.7z"/>
		<path class="st1" d="M167,59.3V31.8h8.9c3.4,0,5.6,0.1,6.6,0.4c1.6,0.4,2.9,1.3,3.9,2.7c1.1,1.4,1.6,3.2,1.6,5.3
			c0,1.7-0.3,3.1-0.9,4.2c-0.6,1.1-1.4,2-2.3,2.7s-1.9,1.1-2.9,1.3c-1.3,0.3-3.2,0.4-5.7,0.4h-3.6v10.3H167z M172.5,36.5v7.8h3
			c2.2,0,3.6-0.1,4.4-0.4c0.7-0.3,1.3-0.7,1.7-1.3c0.4-0.6,0.6-1.3,0.6-2.1c0-1-0.3-1.8-0.9-2.5c-0.6-0.6-1.3-1.1-2.2-1.2
			c-0.7-0.1-2-0.2-4-0.2H172.5z"/>
	</g>
</g>
<g>
</g>
<g>
</g>
<g>
</g>
<g>
</g>
<g>
</g>
<g>
</g>
</svg>
