<?xml version="1.0" encoding="utf-8"?>
<!-- Generator: Adobe Illustrator 21.1.0, SVG Export Plug-In . SVG Version: 6.00 Build 0)  -->
<svg version="1.1" id="Layer_1" xmlns="http://www.w3.org/2000/svg" xmlns:xlink="http://www.w3.org/1999/xlink" x="0px" y="0px"
	 viewBox="0 0 115.9 115.9" style="enable-background:new 0 0 115.9 115.9;" xml:space="preserve">
<style type="text/css">
	.st0{fill:#7B5EA1;}
	.st1{fill:#FFFFFF;}
</style>
<g>
	<path class="st0" d="M103.6,0.2H12.3C5.6,0.2,0.2,5.6,0.2,12.2v91.3c0,6.7,5.4,12.1,12.1,12.1h91.4c6.7,0,12.1-5.4,12.1-12.1V12.3
		C115.7,5.6,110.3,0.2,103.6,0.2L103.6,0.2z M103.6,0.2"/>
	<g>
		<path class="st1" d="M30.2,85.2V43h-5c-2,0.1-3.4-0.5-4.3-1.6c-0.9-1.1-1.4-2.4-1.4-3.8c0-0.1,0-0.1,0-0.1c0,0,0-0.1,0-0.1
			c0-1.5,0.5-2.8,1.5-4c1-1.2,2.4-1.8,4.2-1.8l11.9-0.1c1.8,0.1,3.2,0.7,4.2,1.8c1,1.2,1.5,2.6,1.5,4.2v47.8c0,2.1-0.6,3.8-1.8,4.9
			c-1.2,1.1-2.7,1.7-4.5,1.7c-1.8,0-3.3-0.6-4.5-1.7C30.8,89,30.2,87.4,30.2,85.2L30.2,85.2z"/>
		<path class="st1" d="M58.1,86.1c-3.8-4.1-5.7-9-5.7-14.6c0-2.2,0.3-4.5,1.1-6.9c0.7-2.4,1.6-4.8,2.7-7.3c1.4-2.9,3-5.8,4.9-8.6
			c1.9-2.8,3.7-5.5,5.6-7.9c1.2-1.5,2.5-2.9,3.7-4.2c1.2-1.3,2.3-2.4,3.4-3.4c0.3-0.3,0.7-0.7,1.2-1c0.5-0.3,1-0.7,1.5-1
			c0.4-0.3,0.9-0.4,1.3-0.5c0.4-0.1,0.8-0.1,1.2-0.1c0.3,0,0.6,0.1,1,0.2c0.4,0.1,0.7,0.3,1.1,0.4c1,0.5,1.8,1.2,2.7,2.2
			c0.8,1,1.2,2,1.3,3.1c0,0.1,0,0.1,0,0.1s0,0.1,0,0.1c0,0.2,0,0.4-0.1,0.7c-0.1,0.2-0.1,0.4-0.3,0.7c-0.2,0.3-0.4,0.7-0.6,1
			c-0.3,0.3-0.5,0.7-0.8,1.1c-0.7,0.9-1.5,1.9-2.4,2.9c-0.9,1-1.8,2-2.8,3c-0.1,0.1-0.1,0.2-0.2,0.3c-0.1,0.1-0.2,0.1-0.2,0.2
			c-1.1,1.3-2.2,2.5-3.3,3.7c-1.1,1.2-2,2.3-2.7,3.4l0.2,0.1c0.6-0.2,1.3-0.4,2.1-0.6c0.8-0.2,1.5-0.3,2.3-0.3c0.2,0,0.3,0,0.5,0
			c0.1,0,0.3,0,0.5,0c5,0,9.2,1.9,12.6,5.7c3.3,3.8,5,8.2,5,13.2c0,5.4-2,10.3-5.9,14.5c-3.9,4.2-9,6.3-15.2,6.3
			C67.1,92.3,61.9,90.2,58.1,86.1z M67.7,65.3c-1.5,1.7-2.2,3.8-2.2,6.2c0,2.4,0.7,4.4,2.1,6.1c1.4,1.7,3.4,2.6,5.9,2.6
			c2.4,0,4.3-0.9,5.8-2.6c1.5-1.7,2.2-3.8,2.2-6.2c0-2.3-0.7-4.3-2-6.1c-1.3-1.8-3.3-2.7-6-2.7C71.1,62.7,69.2,63.6,67.7,65.3z"/>
	</g>
</g>
</svg>
