<?xml version="1.0" encoding="utf-8"?>
<!-- Generator: Adobe Illustrator 21.1.0, SVG Export Plug-In . SVG Version: 6.00 Build 0)  -->
<svg version="1.1" id="Layer_1" xmlns="http://www.w3.org/2000/svg" xmlns:xlink="http://www.w3.org/1999/xlink" x="0px" y="0px"
	 viewBox="0 0 115.9 115.9" style="enable-background:new 0 0 115.9 115.9;" xml:space="preserve">
<style type="text/css">
	.st0{fill:#E24A80;}
	.st1{fill:#FFFFFF;}
</style>
<g>
	<path class="st0" d="M103.6,0.2H12.3C5.6,0.2,0.2,5.6,0.2,12.3v91.4c0,6.7,5.4,12.1,12.1,12.1h91.4c6.7,0,12.1-5.4,12.1-12.1V12.3
		C115.7,5.6,110.3,0.2,103.6,0.2L103.6,0.2z M103.6,0.2"/>
	<g>
		<path class="st1" d="M55.4,79.9c1.9,0.1,3.4,0.5,4.7,1.4c1.3,0.9,1.9,2.3,1.9,4.2c0,1.9-0.6,3.3-1.8,4.2c-1.2,0.9-2.6,1.3-4.2,1.3
			H27.8c-1.9,0-3.4-0.4-4.7-1.3c-1.3-0.9-1.9-2.3-1.9-4.2c0-0.7,0.2-1.4,0.5-2c0.3-0.6,0.6-1.2,1-1.7c0.1-0.1,0.2-0.2,0.3-0.3
			s0.2-0.2,0.2-0.3c1.1-1.3,2.2-2.6,3.3-3.8c1.1-1.3,2.2-2.5,3.4-3.7c0.1-0.1,0.1-0.2,0.2-0.3c0.1-0.1,0.2-0.2,0.3-0.3
			c2.4-2.7,4.7-5.4,7.1-8.2c2.4-2.8,4.6-5.7,6.7-8.8c0.8-1.1,1.5-2.3,2.1-3.6c0.6-1.3,0.9-2.7,0.9-4.2c0-1.7-0.6-3.3-1.7-4.5
			s-2.6-1.9-4.3-1.9c-2.4,0-4.1,0.7-5,2.1c-0.9,1.4-1.6,3-2.1,4.7c-0.1,0.1-0.1,0.2-0.1,0.3s0,0.2,0,0.3c-0.5,1.6-1.1,3.1-1.9,4.3
			c-0.7,1.3-2,1.9-4,1.9c-2,0-3.5-0.6-4.6-1.9c-1-1.2-1.6-2.7-1.6-4.3c0-5.3,2-9.8,6-13.5c4-3.7,8.6-5.6,13.8-5.6
			c5.2,0,9.6,1.6,13.2,4.8c3.6,3.2,5.5,7.4,5.5,12.7c0,4-1.3,8-3.9,11.9c-2.6,3.9-5.4,7.7-8.5,11.2c-1.4,1.6-2.8,3.2-4.1,4.7
			c-1.3,1.5-2.6,3-3.7,4.4H55.4z"/>
		<path class="st1" d="M79.3,85V42.7h-5c-2,0.1-3.4-0.5-4.3-1.6c-0.9-1.1-1.4-2.4-1.4-3.8c0-0.1,0-0.1,0-0.1c0,0,0-0.1,0-0.1
			c0-1.5,0.5-2.8,1.5-4c1-1.2,2.4-1.8,4.2-1.8l11.9-0.1c1.8,0.1,3.2,0.7,4.2,1.8c1,1.2,1.5,2.6,1.5,4.2V85c0,2.1-0.6,3.8-1.8,4.9
			c-1.2,1.1-2.7,1.7-4.5,1.7c-1.8,0-3.3-0.6-4.5-1.7C79.9,88.7,79.3,87.1,79.3,85L79.3,85z"/>
	</g>
</g>
</svg>
