<?xml version="1.0" encoding="utf-8"?>
<!-- Generator: Adobe Illustrator 21.1.0, SVG Export Plug-In . SVG Version: 6.00 Build 0)  -->
<svg version="1.1" id="Layer_1" xmlns="http://www.w3.org/2000/svg" xmlns:xlink="http://www.w3.org/1999/xlink" x="0px" y="0px"
	 viewBox="0 0 115.9 115.9" style="enable-background:new 0 0 115.9 115.9;" xml:space="preserve">
<style type="text/css">
	.st0{fill:#0FC0E8;}
	.st1{fill:#FFFFFF;}
</style>
<g>
	<path class="st0" d="M103.6,0H12.3C5.6,0,0.2,5.4,0.2,12.1v91.3c0,6.7,5.4,12.1,12.1,12.1h91.4c6.7,0,12.1-5.4,12.1-12.1V12.1
		C115.7,5.4,110.3,0,103.6,0L103.6,0z M103.6,0"/>
	<g>
		<path class="st1" d="M46.8,80c1.9,0.1,3.4,0.5,4.7,1.4c1.3,0.9,1.9,2.3,1.9,4.2c0,1.9-0.6,3.3-1.8,4.2c-1.2,0.9-2.6,1.3-4.2,1.3
			H19.2c-1.9,0-3.4-0.4-4.7-1.3c-1.3-0.9-1.9-2.3-1.9-4.2c0-0.7,0.2-1.4,0.5-2c0.3-0.6,0.6-1.2,1-1.7c0.1-0.1,0.2-0.2,0.3-0.3
			s0.2-0.2,0.2-0.3c1.1-1.3,2.2-2.6,3.3-3.8c1.1-1.3,2.2-2.5,3.4-3.7c0.1-0.1,0.1-0.2,0.2-0.3c0.1-0.1,0.2-0.2,0.3-0.3
			c2.4-2.7,4.7-5.4,7.1-8.2c2.4-2.8,4.6-5.7,6.7-8.8c0.8-1.1,1.5-2.3,2.1-3.6s0.9-2.7,0.9-4.2c0-1.7-0.6-3.3-1.7-4.5
			c-1.1-1.3-2.6-1.9-4.3-1.9c-2.4,0-4.1,0.7-5,2.1c-0.9,1.4-1.6,3-2.1,4.7c-0.1,0.1-0.1,0.2-0.1,0.3s0,0.2,0,0.3
			c-0.5,1.6-1.1,3.1-1.9,4.3c-0.7,1.3-2,1.9-4,1.9c-2,0-3.5-0.6-4.6-1.9c-1-1.2-1.6-2.7-1.6-4.3c0-5.3,2-9.8,6-13.5
			c4-3.7,8.6-5.6,13.8-5.6c5.2,0,9.6,1.6,13.2,4.8c3.6,3.2,5.5,7.4,5.5,12.7c0,4-1.3,8-3.9,11.9c-2.6,3.9-5.4,7.7-8.5,11.2
			c-1.4,1.6-2.8,3.2-4.1,4.7c-1.3,1.5-2.6,3-3.7,4.4H46.8z"/>
		<path class="st1" d="M65.2,77.9c-1.7,0.1-3-0.3-3.9-1.1c-0.9-0.8-1.5-1.7-1.8-2.6c-0.1-0.2-0.1-0.4-0.1-0.6c0-0.2,0-0.4,0-0.6
			c0-0.7,0.1-1.3,0.3-1.9c0.2-0.5,0.4-1,0.6-1.3c0.1-0.1,0.1-0.1,0.2-0.3c0.1-0.1,0.1-0.2,0.2-0.3l18.8-34.2c1-1.6,2.1-2.8,3.4-3.6
			c1.3-0.8,3-1.2,5.2-1.2c2.5,0,4.7,0.8,6.7,2.5c2,1.7,3,4.4,3,8.2v25.7H99c1.6,0.1,3,0.6,4.2,1.6c1.1,1,1.7,2.3,1.7,4s-0.6,3-1.7,4
			c-1.2,1-2.5,1.5-4.2,1.5h-1.4v7.1c0,2.3-0.5,4-1.4,5c-1,1-2.5,1.6-4.6,1.6c-2.1,0-3.7-0.5-4.6-1.6c-1-1-1.4-2.7-1.4-4.9v-7.2H65.2
			z M85.5,43.3h-0.2L73.9,66.8h11.5V43.3z"/>
	</g>
</g>
</svg>
