<?xml version="1.0" encoding="utf-8"?>
<!-- Generator: Adobe Illustrator 21.1.0, SVG Export Plug-In . SVG Version: 6.00 Build 0)  -->
<svg version="1.1" id="Layer_1" xmlns="http://www.w3.org/2000/svg" xmlns:xlink="http://www.w3.org/1999/xlink" x="0px" y="0px"
	 viewBox="0 0 276.6 92.1" style="enable-background:new 0 0 276.6 92.1;" xml:space="preserve">
<style type="text/css">
	.st0{fill:#12C2EA;}
	.st1{fill:#FFFFFF;}
</style>
<g>
	<path class="st0" d="M255.9,91.9H20.8c-11.4,0-20.6-9.2-20.6-20.6V20.8C0.2,9.4,9.4,0.2,20.8,0.2h235.1c11.4,0,20.6,9.2,20.6,20.6
		v50.5C276.5,82.7,267.3,91.9,255.9,91.9z"/>
	<g>
		<path class="st1" d="M92.7,49.2l5.4,1.7c-0.8,3-2.2,5.2-4.1,6.7c-1.9,1.5-4.3,2.2-7.3,2.2c-3.6,0-6.6-1.2-9-3.7
			c-2.3-2.5-3.5-5.9-3.5-10.2c0-4.6,1.2-8.1,3.5-10.6s5.5-3.8,9.3-3.8c3.4,0,6.1,1,8.2,3c1.2,1.2,2.2,2.9,2.8,5l-5.5,1.3
			c-0.3-1.4-1-2.5-2-3.4c-1-0.8-2.3-1.2-3.8-1.2c-2,0-3.7,0.7-4.9,2.2c-1.3,1.5-1.9,3.8-1.9,7.1c0,3.5,0.6,5.9,1.9,7.4
			c1.2,1.5,2.9,2.2,4.9,2.2c1.5,0,2.7-0.5,3.8-1.4C91.5,52.6,92.2,51.2,92.7,49.2z"/>
		<path class="st1" d="M102.9,59.3V32.1h5.5v22.6h13.8v4.6H102.9z"/>
		<path class="st1" d="M126.2,59.3V31.8h20.3v4.6h-14.8v6.1h13.8v4.6h-13.8v7.5H147v4.6H126.2z"/>
		<path class="st1" d="M176.5,59.3h-6L168,53h-11l-2.3,6.2H149l10.7-27.4h5.9L176.5,59.3z M166.3,48.4l-3.8-10.2l-3.7,10.2H166.3z"
			/>
		<path class="st1" d="M179.4,59.3V31.8h11.7c2.9,0,5.1,0.2,6.4,0.7c1.3,0.5,2.4,1.4,3.2,2.6c0.8,1.3,1.2,2.7,1.2,4.3
			c0,2.1-0.6,3.8-1.8,5.1c-1.2,1.3-3,2.2-5.4,2.5c1.2,0.7,2.2,1.5,3,2.3c0.8,0.8,1.8,2.3,3.2,4.5l3.3,5.3h-6.6l-4-6
			c-1.4-2.1-2.4-3.5-2.9-4c-0.5-0.6-1.1-0.9-1.7-1.1c-0.6-0.2-1.5-0.3-2.8-0.3H185v11.4H179.4z M185,43.4h4.1c2.7,0,4.3-0.1,5-0.3
			c0.7-0.2,1.2-0.6,1.6-1.2s0.6-1.2,0.6-2.1c0-0.9-0.2-1.7-0.7-2.2c-0.5-0.6-1.2-0.9-2.1-1.1c-0.4-0.1-1.8-0.1-4-0.1H185V43.4z"/>
	</g>
</g>
<g>
</g>
<g>
</g>
<g>
</g>
<g>
</g>
<g>
</g>
<g>
</g>
</svg>
