<?xml version="1.0" encoding="utf-8"?>
<!-- Generator: Adobe Illustrator 21.1.0, SVG Export Plug-In . SVG Version: 6.00 Build 0)  -->
<svg version="1.1" id="Layer_1" xmlns="http://www.w3.org/2000/svg" xmlns:xlink="http://www.w3.org/1999/xlink" x="0px" y="0px"
	 viewBox="0 0 88.3 62.4" style="enable-background:new 0 0 88.3 62.4;" xml:space="preserve">
<style type="text/css">
	.st0{fill:#12C2EA;}
	.st1{fill:#FFFFFF;}
</style>
<g>
	<rect class="st0" width="88.3" height="62.4"/>
	<path class="st1" d="M52.6,47.7c-0.8,0.8-0.8,2,0,2.8c0.8,0.8,2,0.8,2.8,0l0,0l17.9-17.9c0.1-0.1,0.2-0.2,0.2-0.3
		c0,0,0.1-0.1,0.1-0.2c0.1-0.1,0.1-0.3,0.2-0.4c0-0.1,0-0.1,0.1-0.2c0.1-0.3,0.1-0.5,0-0.8c0-0.1,0-0.1-0.1-0.2
		c0-0.2-0.1-0.3-0.2-0.5c0,0-0.1-0.1-0.1-0.2c-0.1-0.1-0.2-0.2-0.2-0.3L55.4,11.8c-0.8-0.8-2-0.8-2.8,0c-0.8,0.8-0.8,2,0,2.8
		l14.5,14.5H16.4c-1.1,0-2,0.9-2,2c0,1.1,0.9,2,2,2h50.8L52.6,47.7z"/>
</g>
<g>
</g>
<g>
</g>
<g>
</g>
<g>
</g>
<g>
</g>
<g>
</g>
</svg>
