<?xml version="1.0" encoding="utf-8"?>
<!-- Generator: Adobe Illustrator 21.1.0, SVG Export Plug-In . SVG Version: 6.00 Build 0)  -->
<svg version="1.1" id="Layer_1" xmlns="http://www.w3.org/2000/svg" xmlns:xlink="http://www.w3.org/1999/xlink" x="0px" y="0px"
	 viewBox="0 0 348.3 42.5" style="enable-background:new 0 0 348.3 42.5;" xml:space="preserve">
<style type="text/css">
	.st0{fill:#AFCA36;}
	.st1{fill:#12C2EA;}
	.st2{fill:#F0739E;}
</style>
<g>
	<path class="st0" d="M0,35.7V4.9c0-1.2,0.4-2.3,1.1-3C1.9,1,2.9,0.7,4.3,0.7L14,0.6c4,0,7.4,1.3,10,3.7c2.7,2.4,4,5.6,4,9.5
		c0,4-1.3,7.1-4,9.5c-2.7,2.3-5.9,3.5-9.7,3.5H8.2v8.9c0,1.4-0.4,2.4-1.2,3.2s-1.8,1.1-2.9,1.1c-1.2,0-2.1-0.4-2.9-1.1
		S0,37.1,0,35.7L0,35.7z M8.2,19.4h5.6c1.7,0,3.1-0.5,4.1-1.6c1-1.1,1.5-2.5,1.5-4.1c0-1.6-0.5-3-1.5-4.1c-1-1.1-2.4-1.7-4.1-1.7
		L8.2,7.8V19.4z"/>
	<path class="st0" d="M44.3,9.8c4.2,0,7.6,1.6,10.2,4.7c2.6,3.1,3.9,6.6,3.9,10.7c0,4.1-1.3,7.6-3.9,10.6c-2.6,3-6,4.5-10.2,4.5
		c-4.2,0-7.6-1.5-10.2-4.5c-2.6-3-3.9-6.5-3.9-10.6c0-4,1.3-7.6,3.9-10.7C36.7,11.4,40.1,9.9,44.3,9.8L44.3,9.8z M39.9,19.2
		c-1,1.4-1.6,3-1.8,4.7c0,0.2,0,0.4,0,0.6c0,0.2,0,0.4,0,0.6c0,0.1,0,0.3,0,0.5s0,0.3,0.1,0.5c0.1,1.7,0.7,3.3,1.7,4.8
		c1,1.5,2.5,2.2,4.5,2.2s3.5-0.7,4.5-2.2c1-1.5,1.6-3.1,1.7-4.8c0-0.2,0.1-0.4,0.1-0.5c0-0.2,0-0.3,0-0.5c0-0.2,0-0.4,0-0.6
		s0-0.4,0-0.6c-0.2-1.7-0.8-3.3-1.8-4.7c-1-1.4-2.5-2.1-4.4-2.1C42.4,17.1,40.9,17.8,39.9,19.2z"/>
	<path class="st0" d="M68.5,35.9L61.8,17c-0.2-0.6-0.4-1.1-0.5-1.6s-0.2-0.9-0.2-1.4c0-0.1-0.1-0.2-0.1-0.4c0-0.1,0-0.2,0-0.4
		c0-0.9,0.4-1.6,1.1-2.2c0.7-0.6,1.7-0.9,2.8-0.9c0.9,0,1.8,0.3,2.4,0.8c0.7,0.6,1.1,1.3,1.3,2.3l4.5,15h0.1l4.6-14.7
		c0.3-1,0.7-1.8,1.4-2.5c0.6-0.6,1.5-0.9,2.6-0.9c1.2,0,2.1,0.3,2.7,0.9c0.6,0.6,1,1.5,1.3,2.5l4.6,14.7h0.1l4.5-15.1
		c0.2-0.9,0.7-1.7,1.3-2.2c0.7-0.6,1.5-0.8,2.4-0.8c1.2,0,2.1,0.3,2.8,1c0.7,0.7,1.1,1.6,1.1,2.8c0,0.4-0.1,0.9-0.2,1.3
		s-0.3,1-0.5,1.6l-6.7,19c-0.4,1.2-1,2.1-1.7,2.9s-1.8,1.1-3,1.1c-1.2,0-2.2-0.3-2.9-1c-0.7-0.6-1.3-1.5-1.6-2.7L82,23.5h-0.1
		l-4.1,12.7c-0.4,1.2-0.9,2.1-1.6,2.7s-1.7,1-2.9,1c-1.3,0-2.3-0.4-3-1.1S68.9,37.1,68.5,35.9L68.5,35.9z"/>
	<path class="st0" d="M112.9,27.7c0.3,2,1.2,3.4,2.6,4.4c1.4,0.9,3,1.4,4.9,1.4c1,0,2-0.2,2.8-0.5c0.9-0.3,1.7-0.7,2.4-1.1
		c0.7-0.4,1.4-0.8,2-1.1c0.6-0.3,1.2-0.5,1.7-0.5c0.8,0,1.6,0.4,2.2,1.1s1,1.5,1,2.3c0,1.5-1.1,2.8-3.2,4.1c-2.2,1.2-4.5,2-7.1,2.4
		c-0.4,0-0.9,0.1-1.3,0.1c-0.4,0-0.8,0.1-1.2,0.1c-4.4,0-8-1.4-10.7-4.3c-2.7-2.9-4.1-6.5-4.1-10.8c0-4,1.3-7.6,3.9-10.7
		c2.6-3.1,6-4.6,10.2-4.6c3.7,0,6.8,1.2,9.2,3.6c2.5,2.4,4,5.1,4.7,8c0.1,0.4,0.1,0.9,0.2,1.3c0.1,0.5,0.1,0.9,0.1,1.3
		c0,1.2-0.3,2-0.8,2.6c-0.5,0.6-1.4,0.9-2.6,0.9H112.9z M125.3,22.4c-0.2-1.7-0.9-3.1-1.9-4.2s-2.5-1.7-4.4-1.7
		c-1.8,0-3.2,0.6-4.3,1.7c-1.1,1.2-1.8,2.6-1.9,4.2H125.3z"/>
	<path class="st0" d="M137,35.5V14c0-1.2,0.4-2.1,1.2-2.8c0.8-0.7,1.7-1,2.6-1.1c0,0,0.1,0,0.1,0s0.1,0,0.1,0c1.1,0,2,0.2,2.7,0.7
		c0.7,0.5,1.1,1.3,1.1,2.6l0.1-0.1c0.7-1.1,1.5-1.9,2.4-2.4c0.9-0.5,1.9-0.8,3.1-0.8c0.9,0,1.8,0.3,2.6,1c0.8,0.7,1.2,1.8,1.2,3.2
		c0,0.9-0.3,1.6-0.8,2c-0.5,0.4-1.2,0.8-2,1.1c-0.3,0.1-0.6,0.2-0.9,0.4c-0.3,0.1-0.7,0.3-1,0.4c0,0-0.1,0-0.1,0c0,0,0,0-0.1,0
		c-1.1,0.5-2.2,1.2-3.1,1.9c-1,0.7-1.5,1.8-1.5,3.3v12.1c0,1.4-0.4,2.4-1.1,3.2s-1.7,1.2-2.8,1.2c-1.1,0-2.1-0.4-2.8-1.2
		C137.3,38,137,36.9,137,35.5L137,35.5z"/>
	<path class="st1" d="M160.3,36.8c-2.6-2.3-3.9-5.3-3.9-9c0-2.2,0.5-4.1,1.6-5.7c1.1-1.6,2.5-2.9,4.2-3.8c-1.3-0.9-2.3-2.1-3-3.3
		c-0.7-1.3-1.1-2.8-1.1-4.5c0-3.2,1.2-5.8,3.5-7.7c2.3-1.9,5.1-2.8,8.4-2.8c3.2,0,6,0.9,8.3,2.8c2.4,1.9,3.6,4.4,3.6,7.7
		c0,1.5-0.4,3-1.1,4.4c-0.7,1.4-1.8,2.6-3.1,3.4c1.9,0.9,3.3,2.2,4.3,3.8c1,1.6,1.5,3.5,1.5,5.6c0,3.8-1.3,6.8-4,9.1
		c-2.7,2.2-5.8,3.4-9.5,3.4C166.1,40.3,162.9,39.1,160.3,36.8z M166.2,23.4c-0.9,1.1-1.3,2.4-1.3,3.9c0,1.4,0.4,2.6,1.2,3.8
		c0.8,1.1,2.1,1.7,3.8,1.7c1.6,0,2.8-0.6,3.7-1.7c0.9-1.1,1.3-2.4,1.3-3.8c0-1.7-0.5-3.1-1.4-4c-0.9-1-2.1-1.5-3.6-1.5
		C168.3,21.8,167.1,22.3,166.2,23.4z M167,8.4c-0.7,0.8-1,1.8-1,3c0,1.2,0.3,2.2,1,3s1.7,1.2,2.9,1.2c1.3,0,2.3-0.4,3-1.2
		c0.7-0.8,1-1.8,1-3c0-1.2-0.3-2.2-1-3c-0.7-0.8-1.7-1.2-3-1.2C168.6,7.2,167.6,7.6,167,8.4z"/>
	<path class="st2" d="M216.1,37.8c-1.4,0.8-2.8,1.4-4.4,1.8s-3.3,0.6-5.2,0.6c-5.6,0-10.1-1.9-13.6-5.8c-3.5-3.9-5.3-8.6-5.3-14.3
		c0-5.7,1.7-10.5,5.2-14.3c3.5-3.9,8-5.8,13.6-5.8c5.5,0,10,2,13.6,5.9c3.5,3.9,5.3,8.7,5.3,14.2c0,2.4-0.3,4.7-0.9,6.8
		c-0.6,2.2-1.5,4.1-2.7,5.8l3.1,2.6c0,0.1,0.1,0.1,0.1,0.2c0,0,0.1,0.1,0.1,0.1c0.5,0.4,0.9,0.9,1.2,1.4c0.3,0.5,0.5,1.1,0.5,1.8
		c0,0.9-0.4,1.7-1.1,2.4c-0.7,0.7-1.6,1-2.5,1c0,0-0.1,0-0.1,0s0,0-0.1,0c-0.2,0-0.4,0-0.5,0c-0.2,0-0.4-0.1-0.5-0.1
		c-0.4-0.1-0.8-0.3-1.2-0.5c-0.4-0.3-0.9-0.6-1.4-1L216.1,37.8z M212.8,25l2.7,2.1c0.5-1,0.8-2.1,1-3.3c0.2-1.2,0.3-2.4,0.3-3.6
		c0-3.2-0.9-6.2-2.6-8.7c-1.7-2.6-4.3-3.9-7.7-3.9c-3.4,0-6,1.3-7.7,3.8c-1.7,2.5-2.6,5.5-2.6,8.8s0.8,6.3,2.5,8.8
		c1.7,2.5,4.3,3.8,7.8,3.8c0.6,0,1.2,0,1.8-0.1s1.2-0.2,1.7-0.3l-2-2c-0.2-0.2-0.4-0.4-0.6-0.7c-0.2-0.3-0.3-0.6-0.4-0.8
		c0-0.1,0-0.2,0-0.3c0-0.1,0-0.2,0-0.3c0-1.1,0.3-2,1-2.8c0.7-0.8,1.6-1.2,2.7-1.2c0.4,0,0.8,0.1,1.1,0.2
		C212.1,24.6,212.4,24.8,212.8,25L212.8,25z"/>
	<path class="st2" d="M229.6,28.7V14.5c0-1.3,0.4-2.3,1.1-3.1c0.7-0.8,1.7-1.2,2.8-1.2c1.2,0,2.1,0.4,2.8,1.2
		c0.7,0.8,1.1,1.9,1.1,3.2v14.1c0,1.7,0.5,3,1.6,3.8c1,0.9,2.2,1.3,3.5,1.3s2.5-0.4,3.5-1.3c1-0.9,1.6-2.1,1.6-3.8V14.5
		c0-1.3,0.4-2.3,1.1-3.1c0.7-0.8,1.7-1.2,2.8-1.2c1.2,0,2.1,0.4,2.8,1.2c0.7,0.8,1.1,1.9,1.1,3.2v14.2c0,3.5-1.1,6.4-3.4,8.4
		c-2.2,2.1-5.4,3.1-9.6,3.1s-7.4-1-9.6-3.1C230.7,35.1,229.6,32.3,229.6,28.7L229.6,28.7z"/>
	<path class="st2" d="M267.5,27.7c0.3,2,1.2,3.4,2.6,4.4c1.4,0.9,3,1.4,4.9,1.4c1,0,2-0.2,2.8-0.5c0.9-0.3,1.7-0.7,2.4-1.1
		c0.7-0.4,1.4-0.8,2-1.1c0.6-0.3,1.2-0.5,1.7-0.5c0.8,0,1.6,0.4,2.2,1.1s1,1.5,1,2.3c0,1.5-1.1,2.8-3.2,4.1c-2.2,1.2-4.5,2-7.1,2.4
		c-0.4,0-0.9,0.1-1.3,0.1c-0.4,0-0.8,0.1-1.2,0.1c-4.4,0-8-1.4-10.7-4.3c-2.7-2.9-4.1-6.5-4.1-10.8c0-4,1.3-7.6,3.9-10.7
		c2.6-3.1,6-4.6,10.2-4.6c3.7,0,6.8,1.2,9.2,3.6c2.5,2.4,4,5.1,4.7,8c0.1,0.4,0.1,0.9,0.2,1.3c0.1,0.5,0.1,0.9,0.1,1.3
		c0,1.2-0.3,2-0.8,2.6c-0.5,0.6-1.4,0.9-2.6,0.9H267.5z M279.9,22.4c-0.2-1.7-0.9-3.1-1.9-4.2s-2.5-1.7-4.4-1.7
		c-1.8,0-3.2,0.6-4.3,1.7c-1.1,1.2-1.8,2.6-1.9,4.2H279.9z"/>
	<path class="st2" d="M298,27.7c0.3,2,1.2,3.4,2.6,4.4c1.4,0.9,3,1.4,4.9,1.4c1,0,2-0.2,2.8-0.5c0.9-0.3,1.7-0.7,2.4-1.1
		c0.7-0.4,1.4-0.8,2-1.1c0.6-0.3,1.2-0.5,1.7-0.5c0.8,0,1.6,0.4,2.2,1.1s1,1.5,1,2.3c0,1.5-1.1,2.8-3.2,4.1c-2.2,1.2-4.5,2-7.1,2.4
		c-0.4,0-0.9,0.1-1.3,0.1c-0.4,0-0.8,0.1-1.2,0.1c-4.4,0-8-1.4-10.7-4.3c-2.7-2.9-4.1-6.5-4.1-10.8c0-4,1.3-7.6,3.9-10.7
		c2.6-3.1,6-4.6,10.2-4.6c3.7,0,6.8,1.2,9.2,3.6c2.5,2.4,4,5.1,4.7,8c0.1,0.4,0.1,0.9,0.2,1.3c0.1,0.5,0.1,0.9,0.1,1.3
		c0,1.2-0.3,2-0.8,2.6c-0.5,0.6-1.4,0.9-2.6,0.9H298z M310.4,22.4c-0.2-1.7-0.9-3.1-1.9-4.2s-2.5-1.7-4.4-1.7
		c-1.8,0-3.2,0.6-4.3,1.7c-1.1,1.2-1.8,2.6-1.9,4.2H310.4z"/>
	<path class="st2" d="M322.1,35.5V14.5c0-1.3,0.4-2.3,1.1-3.1c0.7-0.8,1.7-1.2,2.8-1.2c1,0,1.8,0.3,2.5,0.8c0.6,0.5,1,1.2,1.2,2.1
		c0.8-1.1,1.8-1.9,3-2.4c1.2-0.5,2.8-0.8,4.6-0.8c3.1,0,5.7,0.9,7.7,2.8c2,1.9,3.1,4.5,3.1,7.8v15.1c0,1.4-0.4,2.4-1.1,3.2
		c-0.7,0.8-1.7,1.2-2.8,1.2c-1.1,0-2.1-0.4-2.8-1.2c-0.7-0.8-1.1-1.8-1.1-3.1V21.8c0-1.8-0.5-3.1-1.5-4c-1-0.9-2.2-1.3-3.6-1.3
		c-1.6,0-2.8,0.5-3.7,1.6c-0.9,1-1.3,2.3-1.3,3.9v13.7c0,1.4-0.4,2.4-1.1,3.2c-0.7,0.8-1.7,1.2-2.8,1.2c-1.1,0-2.1-0.4-2.8-1.2
		C322.5,38,322.1,36.9,322.1,35.5L322.1,35.5z"/>
</g>
<g>
</g>
<g>
</g>
<g>
</g>
<g>
</g>
<g>
</g>
<g>
</g>
</svg>
