<?xml version="1.0" encoding="utf-8"?>
<!-- Generator: Adobe Illustrator 21.1.0, SVG Export Plug-In . SVG Version: 6.00 Build 0)  -->
<svg version="1.1" id="Layer_1" xmlns="http://www.w3.org/2000/svg" xmlns:xlink="http://www.w3.org/1999/xlink" x="0px" y="0px"
	 viewBox="0 0 115.9 115.9" style="enable-background:new 0 0 115.9 115.9;" xml:space="preserve">
<style type="text/css">
	.st0{fill:#F37721;}
	.st1{fill:#FFFFFF;}
</style>
<g>
	<path class="st0" d="M103.6,0.2H12.3C5.6,0.2,0.2,5.6,0.2,12.2v91.3c0,6.7,5.4,12.1,12.1,12.1h91.4c6.7,0,12.1-5.4,12.1-12.1V12.3
		C115.7,5.6,110.3,0.2,103.6,0.2L103.6,0.2z M103.6,0.2"/>
	<g>
		<path class="st1" d="M30.2,85.2V43h-5c-2,0.1-3.4-0.5-4.3-1.6c-0.9-1.1-1.4-2.4-1.4-3.8c0-0.1,0-0.1,0-0.1c0,0,0-0.1,0-0.1
			c0-1.5,0.5-2.8,1.5-4c1-1.2,2.4-1.8,4.2-1.8l11.9-0.1c1.8,0.1,3.2,0.7,4.2,1.8c1,1.1,1.5,2.6,1.5,4.2v47.8c0,2.1-0.6,3.8-1.8,4.9
			c-1.2,1.1-2.7,1.7-4.5,1.7c-1.8,0-3.3-0.6-4.5-1.7C30.8,89,30.2,87.4,30.2,85.2L30.2,85.2z"/>
		<path class="st1" d="M58,84.9c-3.3-4.9-5.4-10.3-6.2-16.2c-0.2-1.2-0.3-2.5-0.4-3.7c-0.1-1.2-0.1-2.4-0.1-3.6s0-2.4,0.1-3.6
			c0.1-1.2,0.2-2.4,0.4-3.7c0.8-5.9,2.9-11.3,6.2-16.3c3.3-5,8.5-7.4,15.6-7.4c7.1,0,12.3,2.5,15.6,7.4c3.3,5,5.4,10.4,6.2,16.3
			c0.2,1.2,0.3,2.5,0.4,3.7c0.1,1.2,0.1,2.4,0.1,3.6s0,2.4-0.1,3.6c-0.1,1.2-0.2,2.4-0.4,3.7c-0.8,5.9-2.9,11.3-6.2,16.2
			c-3.3,4.9-8.5,7.4-15.6,7.4C66.5,92.3,61.3,89.8,58,84.9z M79.5,77.5c1.3-2.3,2.1-4.9,2.6-7.6c0.3-1.6,0.4-3.1,0.5-4.6
			c0.1-1.5,0.1-2.8,0.1-3.8c0-1.1,0-2.3-0.1-3.7c-0.1-1.4-0.2-2.9-0.4-4.4c-0.4-2.9-1.2-5.5-2.5-7.9c-1.3-2.4-3.3-3.6-6.2-3.6
			c-2.9,0-4.9,1.2-6.2,3.6c-1.3,2.4-2.1,5-2.5,7.8c-0.2,1.5-0.4,3-0.4,4.4c-0.1,1.4-0.1,2.6-0.1,3.7c0,1.1,0,2.3,0.1,3.8
			c0.1,1.5,0.2,3,0.5,4.6c0.4,2.7,1.3,5.3,2.6,7.6c1.3,2.3,3.3,3.5,6,3.5C76.3,80.9,78.3,79.8,79.5,77.5z"/>
	</g>
</g>
</svg>
