<?xml version="1.0" encoding="utf-8"?>
<!-- Generator: Adobe Illustrator 21.1.0, SVG Export Plug-In . SVG Version: 6.00 Build 0)  -->
<svg version="1.1" id="Layer_1" xmlns="http://www.w3.org/2000/svg" xmlns:xlink="http://www.w3.org/1999/xlink" x="0px" y="0px"
	 viewBox="0 0 115.9 115.9" style="enable-background:new 0 0 115.9 115.9;" xml:space="preserve">
<style type="text/css">
	.st0{fill:#00ADA4;}
	.st1{fill:#FFFFFF;}
</style>
<g>
	<path class="st0" d="M103.6,0.2H12.3C5.6,0.2,0.2,5.6,0.2,12.3v91.4c0,6.7,5.4,12.1,12.1,12.1h91.4c6.7,0,12.1-5.4,12.1-12.1V12.3
		C115.7,5.6,110.3,0.2,103.6,0.2L103.6,0.2z M103.6,0.2"/>
	<g>
		<path class="st1" d="M31.7,85V42.7h-5c-2,0.1-3.4-0.5-4.3-1.6c-0.9-1.1-1.4-2.4-1.4-3.8c0-0.1,0-0.1,0-0.1c0,0,0-0.1,0-0.1
			c0-1.5,0.5-2.8,1.5-4c1-1.2,2.4-1.8,4.2-1.8l11.9-0.1c1.8,0.1,3.2,0.7,4.2,1.8c1,1.2,1.5,2.6,1.5,4.2V85c0,2.1-0.6,3.8-1.8,4.9
			c-1.2,1.1-2.7,1.7-4.5,1.7c-1.8,0-3.3-0.6-4.5-1.7C32.3,88.7,31.7,87.1,31.7,85L31.7,85z"/>
		<path class="st1" d="M58.9,82.6l21-39.9H58.4c-2.2,0.1-3.8-0.5-4.7-1.6c-1-1.1-1.5-2.4-1.5-3.8c0-0.1,0-0.1,0-0.1c0,0,0-0.1,0-0.1
			c0-1.5,0.5-2.8,1.4-4c0.9-1.2,2.5-1.8,4.8-1.8l30.5-0.1c1.5,0.1,2.7,0.5,3.6,1.3c0.9,0.8,1.5,1.7,1.9,2.6c0.2,0.4,0.3,0.8,0.4,1.2
			c0.1,0.4,0.1,0.8,0.1,1.1c0,0.8-0.2,1.7-0.6,2.6c-0.4,0.9-0.8,1.9-1.3,2.9L72.1,85.1c-0.4,0.8-0.8,1.6-1.1,2.2
			c-0.3,0.6-0.6,1.2-0.9,1.7c-0.6,0.9-1.3,1.5-2,1.9c-0.7,0.4-1.7,0.6-3,0.6c-1.7,0-3.2-0.4-4.3-1.3c-1.1-0.8-1.9-1.8-2.3-2.8
			c-0.2-0.3-0.3-0.7-0.3-1c-0.1-0.3-0.1-0.6-0.1-0.9c0-0.2,0-0.3,0-0.5c0-0.2,0-0.4,0-0.5c0.1-0.3,0.2-0.6,0.3-0.8
			C58.6,83.4,58.7,83.1,58.9,82.6L58.9,82.6z"/>
	</g>
</g>
</svg>
