<?xml version="1.0" encoding="utf-8"?>
<!-- Generator: Adobe Illustrator 21.1.0, SVG Export Plug-In . SVG Version: 6.00 Build 0)  -->
<svg version="1.1" id="Layer_1" xmlns="http://www.w3.org/2000/svg" xmlns:xlink="http://www.w3.org/1999/xlink" x="0px" y="0px"
	 viewBox="0 0 115.9 115.9" style="enable-background:new 0 0 115.9 115.9;" xml:space="preserve">
<style type="text/css">
	.st0{fill:#0DC1E9;}
	.st1{fill:#FFFFFF;}
</style>
<g>
	<path class="st0" d="M103.6,0.1H12.2C5.6,0.1,0.1,5.5,0.1,12.2v91.3c0,6.7,5.4,12.1,12.1,12.1h91.4c6.7,0,12.1-5.4,12.1-12.1V12.2
		C115.6,5.5,110.2,0.1,103.6,0.1L103.6,0.1z M103.6,0.1"/>
	<g>
		<path class="st1" d="M71.8,80.2c1.9,0.1,3.4,0.5,4.7,1.4c1.3,0.9,1.9,2.3,1.9,4.2c0,1.9-0.6,3.3-1.8,4.2c-1.2,0.9-2.6,1.3-4.2,1.3
			H44.2c-1.9,0-3.4-0.4-4.7-1.3c-1.3-0.9-1.9-2.3-1.9-4.2c0-0.7,0.2-1.4,0.5-2c0.3-0.6,0.6-1.2,1-1.7c0.1-0.1,0.2-0.2,0.3-0.3
			s0.2-0.2,0.2-0.3c1.1-1.3,2.2-2.6,3.3-3.8c1.1-1.3,2.2-2.5,3.4-3.7c0.1-0.1,0.1-0.2,0.2-0.3c0.1-0.1,0.2-0.2,0.3-0.3
			c2.4-2.7,4.7-5.4,7.1-8.2s4.6-5.7,6.7-8.8c0.8-1.1,1.5-2.3,2.1-3.6c0.6-1.3,0.9-2.7,0.9-4.2c0-1.7-0.6-3.3-1.7-4.5
			c-1.2-1.3-2.6-1.9-4.3-1.9c-2.4,0-4.1,0.7-5,2.1c-0.9,1.4-1.6,3-2.1,4.7c-0.1,0.1-0.1,0.2-0.1,0.3c0,0.1,0,0.2,0,0.3
			c-0.5,1.6-1.1,3.1-1.9,4.3c-0.7,1.3-2,1.9-4,1.9c-2,0-3.5-0.6-4.6-1.9c-1-1.2-1.6-2.7-1.6-4.3c0-5.3,2-9.8,6-13.5
			c4-3.7,8.6-5.6,13.8-5.6c5.2,0,9.6,1.6,13.2,4.8c3.6,3.2,5.5,7.4,5.5,12.7c0,4-1.3,8-3.9,11.9c-2.6,3.9-5.4,7.7-8.5,11.2
			c-1.4,1.6-2.8,3.2-4.1,4.7c-1.3,1.5-2.6,3-3.7,4.4H71.8z"/>
	</g>
</g>
</svg>
