<?xml version="1.0" encoding="utf-8"?>
<!-- Generator: Adobe Illustrator 21.1.0, SVG Export Plug-In . SVG Version: 6.00 Build 0)  -->
<svg version="1.1" id="Layer_1" xmlns="http://www.w3.org/2000/svg" xmlns:xlink="http://www.w3.org/1999/xlink" x="0px" y="0px"
	 viewBox="0 0 115.9 115.9" style="enable-background:new 0 0 115.9 115.9;" xml:space="preserve">
<style type="text/css">
	.st0{fill:#F37721;}
	.st1{fill:#FFFFFF;}
</style>
<g>
	<path class="st0" d="M103.7,0.2H12.3C5.6,0.2,0.2,5.6,0.2,12.3v91.3c0,6.7,5.4,12.1,12.1,12.1h91.4c6.7,0,12.1-5.4,12.1-12.1V12.3
		C115.8,5.6,110.3,0.2,103.7,0.2L103.7,0.2z M103.7,0.2"/>
	<g>
		<path class="st1" d="M52.6,85.3V43h-5c-2,0.1-3.4-0.5-4.3-1.6c-0.9-1.1-1.4-2.4-1.4-3.8c0-0.1,0-0.1,0-0.1c0,0,0-0.1,0-0.1
			c0-1.5,0.5-2.8,1.5-4c1-1.2,2.4-1.8,4.2-1.8l11.9-0.1c1.8,0.1,3.2,0.7,4.2,1.8c1,1.1,1.5,2.6,1.5,4.2v47.8c0,2.1-0.6,3.8-1.8,4.9
			c-1.2,1.1-2.7,1.7-4.5,1.7c-1.8,0-3.3-0.6-4.5-1.7C53.2,89,52.6,87.4,52.6,85.3L52.6,85.3z"/>
	</g>
</g>
</svg>
