<?xml version="1.0" encoding="utf-8"?>
<!-- Generator: Adobe Illustrator 21.1.0, SVG Export Plug-In . SVG Version: 6.00 Build 0)  -->
<svg version="1.1" id="Layer_1" xmlns="http://www.w3.org/2000/svg" xmlns:xlink="http://www.w3.org/1999/xlink" x="0px" y="0px"
	 viewBox="0 0 115.9 115.9" style="enable-background:new 0 0 115.9 115.9;" xml:space="preserve">
<style type="text/css">
	.st0{fill:#F27721;}
	.st1{fill:#FFFFFF;}
</style>
<g>
	<path class="st0" d="M103.6,0.2H12.3C5.6,0.2,0.2,5.6,0.2,12.2v91.3c0,6.7,5.4,12.1,12.1,12.1h91.4c6.7,0,12.1-5.4,12.1-12.1V12.3
		C115.7,5.6,110.3,0.2,103.6,0.2L103.6,0.2z M103.6,0.2"/>
	<g>
		<path class="st1" d="M46.8,80.2c1.9,0.1,3.4,0.5,4.7,1.4c1.3,0.9,1.9,2.3,1.9,4.2c0,1.9-0.6,3.3-1.8,4.2c-1.2,0.9-2.6,1.3-4.2,1.3
			H19.2c-1.9,0-3.4-0.4-4.7-1.3c-1.3-0.9-1.9-2.3-1.9-4.2c0-0.7,0.2-1.4,0.5-2c0.3-0.6,0.6-1.2,1-1.7c0.1-0.1,0.2-0.2,0.3-0.3
			s0.2-0.2,0.2-0.3c1.1-1.3,2.2-2.6,3.3-3.8c1.1-1.3,2.2-2.5,3.4-3.7c0.1-0.1,0.1-0.2,0.2-0.3c0.1-0.1,0.2-0.2,0.3-0.3
			c2.4-2.7,4.7-5.4,7.1-8.2c2.4-2.8,4.6-5.7,6.7-8.8c0.8-1.1,1.5-2.3,2.1-3.6s0.9-2.7,0.9-4.2c0-1.7-0.6-3.3-1.7-4.5
			c-1.2-1.3-2.6-1.9-4.3-1.9c-2.4,0-4.1,0.7-5,2.1c-0.9,1.4-1.6,3-2.1,4.7c-0.1,0.1-0.1,0.2-0.1,0.3c0,0.1,0,0.2,0,0.3
			c-0.5,1.6-1.1,3.1-1.9,4.3c-0.7,1.3-2,1.9-4,1.9c-2,0-3.5-0.6-4.6-1.9c-1-1.2-1.6-2.7-1.6-4.3c0-5.3,2-9.8,6-13.5
			c4-3.7,8.6-5.6,13.8-5.6c5.2,0,9.6,1.6,13.2,4.8c3.6,3.2,5.5,7.4,5.5,12.7c0,4-1.3,8-3.9,11.9c-2.6,3.9-5.4,7.7-8.5,11.2
			c-1.4,1.6-2.8,3.2-4.1,4.7c-1.3,1.5-2.6,3-3.7,4.4H46.8z"/>
		<path class="st1" d="M80.8,30.4c4.8,0.1,8.6,1.2,11.5,3.6c2.8,2.3,4.7,4.9,5.7,7.7c0.3,0.7,0.5,1.4,0.6,2.1
			c0.1,0.7,0.2,1.4,0.2,2.1c0,2.6-0.6,5.1-1.7,7.3c-1.1,2.2-2.9,4.1-5.2,5.6c3,1.4,5.5,3.4,7.4,6.1c1.9,2.7,2.9,5.7,2.9,9
			c0,5-2,9.4-6.1,13c-4.1,3.6-9.1,5.5-15.1,5.5c-4.9,0-9-1.2-12.3-3.5c-3.3-2.3-5.6-4.9-6.9-7.7c-0.3-0.8-0.6-1.6-0.8-2.3
			s-0.3-1.5-0.3-2.2c0-1.5,0.6-2.7,1.7-3.7c1.1-1,2.4-1.6,3.7-1.9c0.2-0.1,0.3-0.1,0.5-0.1s0.3,0,0.5,0c1.1,0,2,0.3,2.7,1
			s1.3,1.5,1.9,2.4c0.2,0.3,0.3,0.5,0.5,0.8c0.2,0.3,0.3,0.5,0.5,0.7c0.8,1.2,1.8,2.4,3,3.4c1.2,1,3,1.6,5.3,1.6
			c2.2,0,4.1-0.7,5.6-2.2c1.5-1.5,2.3-3.4,2.3-5.6c0-3-0.7-4.8-2.2-5.6c-1.5-0.8-3.1-1.3-4.9-1.6c-0.1,0-0.2,0-0.3,0s-0.2,0-0.2-0.1
			c-1.7-0.2-3.2-0.6-4.6-1.3c-1.4-0.6-2.1-2.1-2.1-4.5c0-2.2,0.6-3.6,1.9-4.3c1.2-0.7,2.6-1.2,4.1-1.6c1.5-0.4,2.9-1,4.1-1.7
			c1.2-0.7,1.9-2.3,1.9-4.6c0-1.6-0.5-3-1.6-4c-1.1-1.1-2.6-1.6-4.5-1.6c-2,0-3.5,0.4-4.5,1.3c-1,0.9-1.9,1.8-2.6,2.8
			c-0.1,0.2-0.2,0.3-0.3,0.5c-0.1,0.1-0.2,0.3-0.3,0.4c-0.6,0.9-1.3,1.7-2,2.3c-0.7,0.6-1.7,1-2.9,1c-1.7,0-3.1-0.6-4-1.9
			c-1-1.3-1.4-2.7-1.4-4.3c0-0.2,0-0.4,0-0.7c0-0.2,0-0.4,0-0.7c0.6-3.1,2.7-5.9,6.3-8.5C72.4,31.8,76.4,30.5,80.8,30.4L80.8,30.4z"
			/>
	</g>
</g>
</svg>
