<?xml version="1.0" encoding="utf-8"?>
<!-- Generator: Adobe Illustrator 21.1.0, SVG Export Plug-In . SVG Version: 6.00 Build 0)  -->
<svg version="1.1" id="Layer_1" xmlns="http://www.w3.org/2000/svg" xmlns:xlink="http://www.w3.org/1999/xlink" x="0px" y="0px"
	 viewBox="0 0 115.9 115.9" style="enable-background:new 0 0 115.9 115.9;" xml:space="preserve">
<style type="text/css">
	.st0{fill:#ADC836;}
	.st1{fill:#FFFFFF;}
</style>
<g>
	<path class="st0" d="M103.6,0.2H12.3C5.6,0.2,0.2,5.6,0.2,12.3v91.4c0,6.7,5.4,12.1,12.1,12.1h91.4c6.7,0,12.1-5.4,12.1-12.1V12.3
		C115.7,5.6,110.3,0.2,103.6,0.2L103.6,0.2z M103.6,0.2"/>
	<g>
		<path class="st1" d="M30.2,85V42.7h-5c-2,0.1-3.4-0.5-4.3-1.6c-0.9-1.1-1.4-2.4-1.4-3.8c0-0.1,0-0.1,0-0.1c0,0,0-0.1,0-0.1
			c0-1.5,0.5-2.8,1.5-4c1-1.2,2.4-1.8,4.2-1.8l11.9-0.1c1.8,0.1,3.2,0.7,4.2,1.8c1,1.2,1.5,2.6,1.5,4.2V85c0,2.1-0.6,3.8-1.8,4.9
			c-1.2,1.1-2.7,1.7-4.5,1.7c-1.8,0-3.3-0.6-4.5-1.7C30.8,88.7,30.2,87.1,30.2,85L30.2,85z"/>
		<path class="st1" d="M69.1,51.7c0.7-0.1,1.4-0.2,2.1-0.3c0.7-0.1,1.4-0.2,2.1-0.3c0.3,0,0.7,0,1.1,0c0.4,0,0.7,0,1.1,0
			c5.1,0,9.3,1.8,12.5,5.3c3.3,3.5,4.9,7.7,4.9,12.7c0,7-1.9,12.6-5.7,16.9c-3.8,4.2-9.3,6.4-16.6,6.4c-1,0-2.2-0.1-3.5-0.3
			c-1.3-0.2-2.7-0.5-4.2-0.9c-2.7-0.8-5.2-2.1-7.4-3.8c-2.2-1.7-3.4-3.7-3.4-6.1c0-1.6,0.6-2.9,1.7-4c1.1-1.1,2.5-1.7,4-1.7
			c0.8,0,1.7,0.3,2.6,0.8c0.9,0.6,1.9,1.2,3,1.9c1.1,0.7,2.2,1.3,3.4,1.9c1.2,0.6,2.6,0.8,4,0.8c2.7,0,4.9-1,6.4-3.1
			c1.5-2.1,2.3-4.3,2.5-6.8c0.1-0.2,0.1-0.3,0.1-0.5s0-0.4,0-0.5c0-2.5-0.7-4.6-2.1-6.1c-1.4-1.6-3.4-2.4-6-2.4
			c-1.2,0-2.2,0.1-3,0.4c-0.8,0.3-1.5,0.6-2.2,0.9c-0.1,0.1-0.1,0.1-0.1,0.1c0,0-0.1,0-0.1,0c-0.6,0.3-1.3,0.6-1.9,0.9
			c-0.7,0.3-1.5,0.4-2.5,0.4c-1.1,0-2.1-0.3-2.8-0.8c-0.8-0.5-1.3-1.1-1.7-1.7c-0.1-0.3-0.2-0.5-0.3-0.8c-0.1-0.3-0.1-0.5-0.1-0.7
			c0-0.4,0-0.7,0-1.1c0-0.3,0.1-0.6,0.1-0.9c0-0.1,0-0.1,0-0.1s0-0.1,0-0.1c0-0.1,0-0.2,0-0.3c0-0.1,0-0.2,0-0.3l2.1-17.8
			c0.4-3.3,1.1-5.4,2.1-6.4c1-1,2.4-1.5,4.5-1.5L86,31.1c2,0.1,3.5,0.6,4.5,1.6c1.1,1,1.6,2.3,1.6,3.8c0,1.7-0.3,3-1,3.9
			c-0.7,0.9-1.4,1.5-2.2,1.9c-0.5,0.2-1,0.4-1.5,0.4c-0.5,0.1-0.9,0.1-1.2,0.1l-15.8-0.1L69.1,51.7z"/>
	</g>
</g>
</svg>
