<?xml version="1.0" encoding="utf-8"?>
<!-- Generator: Adobe Illustrator 21.1.0, SVG Export Plug-In . SVG Version: 6.00 Build 0)  -->
<svg version="1.1" id="Layer_1" xmlns="http://www.w3.org/2000/svg" xmlns:xlink="http://www.w3.org/1999/xlink" x="0px" y="0px"
	 viewBox="0 0 115.9 115.9" style="enable-background:new 0 0 115.9 115.9;" xml:space="preserve">
<style type="text/css">
	.st0{fill:#0FC0E8;}
	.st1{fill:#FFFFFF;}
</style>
<g>
	<path class="st0" d="M103.6,0.2H12.3C5.6,0.2,0.2,5.6,0.2,12.3v91.4c0,6.7,5.4,12.1,12.1,12.1h91.4c6.7,0,12.1-5.4,12.1-12.1V12.3
		C115.7,5.6,110.3,0.2,103.6,0.2L103.6,0.2z M103.6,0.2"/>
	<g>
		<path class="st1" d="M30.2,85V42.7h-5c-2,0.1-3.4-0.5-4.3-1.6c-0.9-1.1-1.4-2.4-1.4-3.8c0-0.1,0-0.1,0-0.1c0,0,0-0.1,0-0.1
			c0-1.5,0.5-2.8,1.5-4c1-1.2,2.4-1.8,4.2-1.8l11.9-0.1c1.8,0.1,3.2,0.7,4.2,1.8c1,1.2,1.5,2.6,1.5,4.2V85c0,2.1-0.6,3.8-1.8,4.9
			c-1.2,1.1-2.7,1.7-4.5,1.7c-1.8,0-3.3-0.6-4.5-1.7C30.8,88.7,30.2,87.1,30.2,85L30.2,85z"/>
		<path class="st1" d="M58.8,86.7c-4-3.6-6.1-8.1-6.1-13.8c0-3.4,0.8-6.3,2.5-8.7c1.7-2.5,3.8-4.4,6.5-5.8c-2-1.5-3.5-3.2-4.7-5.1
			c-1.2-2-1.7-4.3-1.7-6.9c0-4.9,1.8-8.9,5.3-11.8c3.6-2.9,7.8-4.4,12.8-4.4c4.9,0,9.1,1.4,12.8,4.3c3.6,2.9,5.5,6.8,5.5,11.8
			c0,2.4-0.6,4.6-1.7,6.8c-1.1,2.2-2.7,3.9-4.8,5.2c2.9,1.4,5.1,3.4,6.6,5.9c1.6,2.5,2.4,5.4,2.4,8.7c0,5.8-2,10.5-6.1,13.9
			c-4.1,3.4-9,5.2-14.6,5.2C67.7,92,62.8,90.3,58.8,86.7z M67.9,66.1c-1.3,1.6-2,3.6-2,6c0,2.1,0.6,4.1,1.9,5.8
			c1.3,1.7,3.2,2.6,5.8,2.6c2.4,0,4.3-0.9,5.6-2.6c1.3-1.7,2-3.7,2-5.8c0-2.6-0.7-4.7-2.1-6.2c-1.4-1.5-3.3-2.2-5.6-2.2
			C71.1,63.7,69.2,64.5,67.9,66.1z M69,43.2c-1,1.2-1.6,2.7-1.6,4.5c0,1.9,0.5,3.4,1.6,4.6c1.1,1.2,2.6,1.8,4.5,1.8
			c2,0,3.5-0.6,4.5-1.8c1.1-1.2,1.6-2.7,1.6-4.6c0-1.8-0.5-3.4-1.6-4.6c-1.1-1.2-2.6-1.9-4.5-1.9C71.6,41.3,70.1,41.9,69,43.2z"/>
	</g>
</g>
</svg>
