<?xml version="1.0" encoding="utf-8"?>
<!-- Generator: Adobe Illustrator 21.1.0, SVG Export Plug-In . SVG Version: 6.00 Build 0)  -->
<svg version="1.1" id="Layer_1" xmlns="http://www.w3.org/2000/svg" xmlns:xlink="http://www.w3.org/1999/xlink" x="0px" y="0px"
	 viewBox="0 0 115.9 115.9" style="enable-background:new 0 0 115.9 115.9;" xml:space="preserve">
<style type="text/css">
	.st0{fill:#7A5DA1;}
	.st1{fill:#FFFFFF;}
</style>
<g>
	<path class="st0" d="M103.6,0.2H12.3C5.6,0.2,0.2,5.6,0.2,12.3v91.4c0,6.7,5.4,12.1,12.1,12.1h91.4c6.7,0,12.1-5.4,12.1-12.1V12.3
		C115.7,5.6,110.3,0.2,103.6,0.2L103.6,0.2z M103.6,0.2"/>
	<g>
		<path class="st1" d="M41.2,77.8c-1.7,0.1-3-0.3-3.9-1.1c-0.9-0.8-1.5-1.7-1.8-2.6c-0.1-0.2-0.1-0.4-0.1-0.6c0-0.2,0-0.4,0-0.6
			c0-0.7,0.1-1.3,0.3-1.9c0.2-0.5,0.4-1,0.6-1.3c0.1-0.1,0.1-0.1,0.2-0.3c0.1-0.1,0.1-0.2,0.2-0.3L55.3,35c1-1.6,2.1-2.8,3.4-3.6
			c1.3-0.8,3-1.2,5.2-1.2c2.5,0,4.7,0.8,6.7,2.5c2,1.7,3,4.4,3,8.2v25.7H75c1.6,0.1,3,0.6,4.2,1.6c1.1,1,1.7,2.3,1.7,4
			c0,1.7-0.6,3-1.7,4c-1.1,1-2.5,1.5-4.2,1.5h-1.4V85c0,2.3-0.5,4-1.4,5c-1,1-2.5,1.6-4.6,1.6c-2.1,0-3.7-0.5-4.6-1.6
			c-1-1-1.4-2.7-1.4-4.9v-7.2H41.2z M61.5,43.2h-0.2L49.9,66.7h11.5V43.2z"/>
	</g>
</g>
</svg>
